solid esp32_dongle_case_lid_deep
  facet normal 0 0 -1
    outer loop
      vertex 0 0 10
      vertex 78 14 10
      vertex 78 0 10
    endloop
  endfacet
  facet normal 0 0 -1
    outer loop
      vertex 0 0 10
      vertex 0 14 10
      vertex 78 14 10
    endloop
  endfacet
  facet normal 0 0 1
    outer loop
      vertex 0 0 12
      vertex 78 0 12
      vertex 78 14 12
    endloop
  endfacet
  facet normal 0 0 1
    outer loop
      vertex 0 0 12
      vertex 78 14 12
      vertex 0 14 12
    endloop
  endfacet
  facet normal 0 -1 0
    outer loop
      vertex 0 0 10
      vertex 78 0 10
      vertex 78 0 12
    endloop
  endfacet
  facet normal 0 -1 0
    outer loop
      vertex 0 0 10
      vertex 78 0 12
      vertex 0 0 12
    endloop
  endfacet
  facet normal 1 0 0
    outer loop
      vertex 78 0 10
      vertex 78 14 10
      vertex 78 14 12
    endloop
  endfacet
  facet normal 1 0 0
    outer loop
      vertex 78 0 10
      vertex 78 14 12
      vertex 78 0 12
    endloop
  endfacet
  facet normal 0 1 0
    outer loop
      vertex 78 14 10
      vertex 0 14 10
      vertex 0 14 12
    endloop
  endfacet
  facet normal 0 1 -0
    outer loop
      vertex 78 14 10
      vertex 0 14 12
      vertex 78 14 12
    endloop
  endfacet
  facet normal -1 0 0
    outer loop
      vertex 0 14 10
      vertex 0 0 10
      vertex 0 0 12
    endloop
  endfacet
  facet normal -1 0 0
    outer loop
      vertex 0 14 10
      vertex 0 0 12
      vertex 0 14 12
    endloop
  endfacet
  facet normal 0 0 -1
    outer loop
      vertex 0 14 10
      vertex 54 15.4 10
      vertex 54 14 10
    endloop
  endfacet
  facet normal 0 0 -1
    outer loop
      vertex 0 14 10
      vertex 0 15.4 10
      vertex 54 15.4 10
    endloop
  endfacet
  facet normal 0 0 1
    outer loop
      vertex 0 14 12
      vertex 54 14 12
      vertex 54 15.4 12
    endloop
  endfacet
  facet normal 0 0 1
    outer loop
      vertex 0 14 12
      vertex 54 15.4 12
      vertex 0 15.4 12
    endloop
  endfacet
  facet normal 0 -1 0
    outer loop
      vertex 0 14 10
      vertex 54 14 10
      vertex 54 14 12
    endloop
  endfacet
  facet normal 0 -1 0
    outer loop
      vertex 0 14 10
      vertex 54 14 12
      vertex 0 14 12
    endloop
  endfacet
  facet normal 1 0 0
    outer loop
      vertex 54 14 10
      vertex 54 15.4 10
      vertex 54 15.4 12
    endloop
  endfacet
  facet normal 1 0 0
    outer loop
      vertex 54 14 10
      vertex 54 15.4 12
      vertex 54 14 12
    endloop
  endfacet
  facet normal 0 1 0
    outer loop
      vertex 54 15.4 10
      vertex 0 15.4 10
      vertex 0 15.4 12
    endloop
  endfacet
  facet normal 0 1 -0
    outer loop
      vertex 54 15.4 10
      vertex 0 15.4 12
      vertex 54 15.4 12
    endloop
  endfacet
  facet normal -1 0 0
    outer loop
      vertex 0 15.4 10
      vertex 0 14 10
      vertex 0 14 12
    endloop
  endfacet
  facet normal -1 0 0
    outer loop
      vertex 0 15.4 10
      vertex 0 14 12
      vertex 0 15.4 12
    endloop
  endfacet
  facet normal 0 0 -1
    outer loop
      vertex 68 14 10
      vertex 78 15.4 10
      vertex 78 14 10
    endloop
  endfacet
  facet normal 0 0 -1
    outer loop
      vertex 68 14 10
      vertex 68 15.4 10
      vertex 78 15.4 10
    endloop
  endfacet
  facet normal 0 0 1
    outer loop
      vertex 68 14 12
      vertex 78 14 12
      vertex 78 15.4 12
    endloop
  endfacet
  facet normal 0 0 1
    outer loop
      vertex 68 14 12
      vertex 78 15.4 12
      vertex 68 15.4 12
    endloop
  endfacet
  facet normal 0 -1 0
    outer loop
      vertex 68 14 10
      vertex 78 14 10
      vertex 78 14 12
    endloop
  endfacet
  facet normal 0 -1 0
    outer loop
      vertex 68 14 10
      vertex 78 14 12
      vertex 68 14 12
    endloop
  endfacet
  facet normal 1 0 0
    outer loop
      vertex 78 14 10
      vertex 78 15.4 10
      vertex 78 15.4 12
    endloop
  endfacet
  facet normal 1 0 0
    outer loop
      vertex 78 14 10
      vertex 78 15.4 12
      vertex 78 14 12
    endloop
  endfacet
  facet normal 0 1 0
    outer loop
      vertex 78 15.4 10
      vertex 68 15.4 10
      vertex 68 15.4 12
    endloop
  endfacet
  facet normal 0 1 -0
    outer loop
      vertex 78 15.4 10
      vertex 68 15.4 12
      vertex 78 15.4 12
    endloop
  endfacet
  facet normal -1 0 0
    outer loop
      vertex 68 15.4 10
      vertex 68 14 10
      vertex 68 14 12
    endloop
  endfacet
  facet normal -1 0 0
    outer loop
      vertex 68 15.4 10
      vertex 68 14 12
      vertex 68 15.4 12
    endloop
  endfacet
  facet normal 0 0 -1
    outer loop
      vertex 0 15.4 10
      vertex 78 17.2 10
      vertex 78 15.4 10
    endloop
  endfacet
  facet normal 0 0 -1
    outer loop
      vertex 0 15.4 10
      vertex 0 17.2 10
      vertex 78 17.2 10
    endloop
  endfacet
  facet normal 0 0 1
    outer loop
      vertex 0 15.4 12
      vertex 78 15.4 12
      vertex 78 17.2 12
    endloop
  endfacet
  facet normal 0 0 1
    outer loop
      vertex 0 15.4 12
      vertex 78 17.2 12
      vertex 0 17.2 12
    endloop
  endfacet
  facet normal 0 -1 0
    outer loop
      vertex 0 15.4 10
      vertex 78 15.4 10
      vertex 78 15.4 12
    endloop
  endfacet
  facet normal 0 -1 0
    outer loop
      vertex 0 15.4 10
      vertex 78 15.4 12
      vertex 0 15.4 12
    endloop
  endfacet
  facet normal 1 0 0
    outer loop
      vertex 78 15.4 10
      vertex 78 17.2 10
      vertex 78 17.2 12
    endloop
  endfacet
  facet normal 1 0 0
    outer loop
      vertex 78 15.4 10
      vertex 78 17.2 12
      vertex 78 15.4 12
    endloop
  endfacet
  facet normal 0 1 0
    outer loop
      vertex 78 17.2 10
      vertex 0 17.2 10
      vertex 0 17.2 12
    endloop
  endfacet
  facet normal 0 1 -0
    outer loop
      vertex 78 17.2 10
      vertex 0 17.2 12
      vertex 78 17.2 12
    endloop
  endfacet
  facet normal -1 0 0
    outer loop
      vertex 0 17.2 10
      vertex 0 15.4 10
      vertex 0 15.4 12
    endloop
  endfacet
  facet normal -1 0 0
    outer loop
      vertex 0 17.2 10
      vertex 0 15.4 12
      vertex 0 17.2 12
    endloop
  endfacet
  facet normal 0 0 -1
    outer loop
      vertex 0 17.2 10
      vertex 54 18.6 10
      vertex 54 17.2 10
    endloop
  endfacet
  facet normal 0 0 -1
    outer loop
      vertex 0 17.2 10
      vertex 0 18.6 10
      vertex 54 18.6 10
    endloop
  endfacet
  facet normal 0 0 1
    outer loop
      vertex 0 17.2 12
      vertex 54 17.2 12
      vertex 54 18.6 12
    endloop
  endfacet
  facet normal 0 0 1
    outer loop
      vertex 0 17.2 12
      vertex 54 18.6 12
      vertex 0 18.6 12
    endloop
  endfacet
  facet normal 0 -1 0
    outer loop
      vertex 0 17.2 10
      vertex 54 17.2 10
      vertex 54 17.2 12
    endloop
  endfacet
  facet normal 0 -1 0
    outer loop
      vertex 0 17.2 10
      vertex 54 17.2 12
      vertex 0 17.2 12
    endloop
  endfacet
  facet normal 1 0 0
    outer loop
      vertex 54 17.2 10
      vertex 54 18.6 10
      vertex 54 18.6 12
    endloop
  endfacet
  facet normal 1 0 0
    outer loop
      vertex 54 17.2 10
      vertex 54 18.6 12
      vertex 54 17.2 12
    endloop
  endfacet
  facet normal 0 1 0
    outer loop
      vertex 54 18.6 10
      vertex 0 18.6 10
      vertex 0 18.6 12
    endloop
  endfacet
  facet normal 0 1 -0
    outer loop
      vertex 54 18.6 10
      vertex 0 18.6 12
      vertex 54 18.6 12
    endloop
  endfacet
  facet normal -1 0 0
    outer loop
      vertex 0 18.6 10
      vertex 0 17.2 10
      vertex 0 17.2 12
    endloop
  endfacet
  facet normal -1 0 0
    outer loop
      vertex 0 18.6 10
      vertex 0 17.2 12
      vertex 0 18.6 12
    endloop
  endfacet
  facet normal 0 0 -1
    outer loop
      vertex 68 17.2 10
      vertex 78 18.6 10
      vertex 78 17.2 10
    endloop
  endfacet
  facet normal 0 0 -1
    outer loop
      vertex 68 17.2 10
      vertex 68 18.6 10
      vertex 78 18.6 10
    endloop
  endfacet
  facet normal 0 0 1
    outer loop
      vertex 68 17.2 12
      vertex 78 17.2 12
      vertex 78 18.6 12
    endloop
  endfacet
  facet normal 0 0 1
    outer loop
      vertex 68 17.2 12
      vertex 78 18.6 12
      vertex 68 18.6 12
    endloop
  endfacet
  facet normal 0 -1 0
    outer loop
      vertex 68 17.2 10
      vertex 78 17.2 10
      vertex 78 17.2 12
    endloop
  endfacet
  facet normal 0 -1 0
    outer loop
      vertex 68 17.2 10
      vertex 78 17.2 12
      vertex 68 17.2 12
    endloop
  endfacet
  facet normal 1 0 0
    outer loop
      vertex 78 17.2 10
      vertex 78 18.6 10
      vertex 78 18.6 12
    endloop
  endfacet
  facet normal 1 0 0
    outer loop
      vertex 78 17.2 10
      vertex 78 18.6 12
      vertex 78 17.2 12
    endloop
  endfacet
  facet normal 0 1 0
    outer loop
      vertex 78 18.6 10
      vertex 68 18.6 10
      vertex 68 18.6 12
    endloop
  endfacet
  facet normal 0 1 -0
    outer loop
      vertex 78 18.6 10
      vertex 68 18.6 12
      vertex 78 18.6 12
    endloop
  endfacet
  facet normal -1 0 0
    outer loop
      vertex 68 18.6 10
      vertex 68 17.2 10
      vertex 68 17.2 12
    endloop
  endfacet
  facet normal -1 0 0
    outer loop
      vertex 68 18.6 10
      vertex 68 17.2 12
      vertex 68 18.6 12
    endloop
  endfacet
  facet normal 0 0 -1
    outer loop
      vertex 0 18.6 10
      vertex 78 20.4 10
      vertex 78 18.6 10
    endloop
  endfacet
  facet normal 0 0 -1
    outer loop
      vertex 0 18.6 10
      vertex 0 20.4 10
      vertex 78 20.4 10
    endloop
  endfacet
  facet normal 0 0 1
    outer loop
      vertex 0 18.6 12
      vertex 78 18.6 12
      vertex 78 20.4 12
    endloop
  endfacet
  facet normal 0 0 1
    outer loop
      vertex 0 18.6 12
      vertex 78 20.4 12
      vertex 0 20.4 12
    endloop
  endfacet
  facet normal 0 -1 0
    outer loop
      vertex 0 18.6 10
      vertex 78 18.6 10
      vertex 78 18.6 12
    endloop
  endfacet
  facet normal 0 -1 0
    outer loop
      vertex 0 18.6 10
      vertex 78 18.6 12
      vertex 0 18.6 12
    endloop
  endfacet
  facet normal 1 0 0
    outer loop
      vertex 78 18.6 10
      vertex 78 20.4 10
      vertex 78 20.4 12
    endloop
  endfacet
  facet normal 1 0 0
    outer loop
      vertex 78 18.6 10
      vertex 78 20.4 12
      vertex 78 18.6 12
    endloop
  endfacet
  facet normal 0 1 0
    outer loop
      vertex 78 20.4 10
      vertex 0 20.4 10
      vertex 0 20.4 12
    endloop
  endfacet
  facet normal 0 1 -0
    outer loop
      vertex 78 20.4 10
      vertex 0 20.4 12
      vertex 78 20.4 12
    endloop
  endfacet
  facet normal -1 0 0
    outer loop
      vertex 0 20.4 10
      vertex 0 18.6 10
      vertex 0 18.6 12
    endloop
  endfacet
  facet normal -1 0 0
    outer loop
      vertex 0 20.4 10
      vertex 0 18.6 12
      vertex 0 20.4 12
    endloop
  endfacet
  facet normal 0 0 -1
    outer loop
      vertex 0 20.4 10
      vertex 54 21.8 10
      vertex 54 20.4 10
    endloop
  endfacet
  facet normal 0 0 -1
    outer loop
      vertex 0 20.4 10
      vertex 0 21.8 10
      vertex 54 21.8 10
    endloop
  endfacet
  facet normal 0 0 1
    outer loop
      vertex 0 20.4 12
      vertex 54 20.4 12
      vertex 54 21.8 12
    endloop
  endfacet
  facet normal 0 0 1
    outer loop
      vertex 0 20.4 12
      vertex 54 21.8 12
      vertex 0 21.8 12
    endloop
  endfacet
  facet normal 0 -1 0
    outer loop
      vertex 0 20.4 10
      vertex 54 20.4 10
      vertex 54 20.4 12
    endloop
  endfacet
  facet normal 0 -1 0
    outer loop
      vertex 0 20.4 10
      vertex 54 20.4 12
      vertex 0 20.4 12
    endloop
  endfacet
  facet normal 1 0 0
    outer loop
      vertex 54 20.4 10
      vertex 54 21.8 10
      vertex 54 21.8 12
    endloop
  endfacet
  facet normal 1 0 0
    outer loop
      vertex 54 20.4 10
      vertex 54 21.8 12
      vertex 54 20.4 12
    endloop
  endfacet
  facet normal 0 1 0
    outer loop
      vertex 54 21.8 10
      vertex 0 21.8 10
      vertex 0 21.8 12
    endloop
  endfacet
  facet normal 0 1 -0
    outer loop
      vertex 54 21.8 10
      vertex 0 21.8 12
      vertex 54 21.8 12
    endloop
  endfacet
  facet normal -1 0 0
    outer loop
      vertex 0 21.8 10
      vertex 0 20.4 10
      vertex 0 20.4 12
    endloop
  endfacet
  facet normal -1 0 0
    outer loop
      vertex 0 21.8 10
      vertex 0 20.4 12
      vertex 0 21.8 12
    endloop
  endfacet
  facet normal 0 0 -1
    outer loop
      vertex 68 20.4 10
      vertex 78 21.8 10
      vertex 78 20.4 10
    endloop
  endfacet
  facet normal 0 0 -1
    outer loop
      vertex 68 20.4 10
      vertex 68 21.8 10
      vertex 78 21.8 10
    endloop
  endfacet
  facet normal 0 0 1
    outer loop
      vertex 68 20.4 12
      vertex 78 20.4 12
      vertex 78 21.8 12
    endloop
  endfacet
  facet normal 0 0 1
    outer loop
      vertex 68 20.4 12
      vertex 78 21.8 12
      vertex 68 21.8 12
    endloop
  endfacet
  facet normal 0 -1 0
    outer loop
      vertex 68 20.4 10
      vertex 78 20.4 10
      vertex 78 20.4 12
    endloop
  endfacet
  facet normal 0 -1 0
    outer loop
      vertex 68 20.4 10
      vertex 78 20.4 12
      vertex 68 20.4 12
    endloop
  endfacet
  facet normal 1 0 0
    outer loop
      vertex 78 20.4 10
      vertex 78 21.8 10
      vertex 78 21.8 12
    endloop
  endfacet
  facet normal 1 0 0
    outer loop
      vertex 78 20.4 10
      vertex 78 21.8 12
      vertex 78 20.4 12
    endloop
  endfacet
  facet normal 0 1 0
    outer loop
      vertex 78 21.8 10
      vertex 68 21.8 10
      vertex 68 21.8 12
    endloop
  endfacet
  facet normal 0 1 -0
    outer loop
      vertex 78 21.8 10
      vertex 68 21.8 12
      vertex 78 21.8 12
    endloop
  endfacet
  facet normal -1 0 0
    outer loop
      vertex 68 21.8 10
      vertex 68 20.4 10
      vertex 68 20.4 12
    endloop
  endfacet
  facet normal -1 0 0
    outer loop
      vertex 68 21.8 10
      vertex 68 20.4 12
      vertex 68 21.8 12
    endloop
  endfacet
  facet normal 0 0 -1
    outer loop
      vertex 0 21.8 10
      vertex 78 23.6 10
      vertex 78 21.8 10
    endloop
  endfacet
  facet normal 0 0 -1
    outer loop
      vertex 0 21.8 10
      vertex 0 23.6 10
      vertex 78 23.6 10
    endloop
  endfacet
  facet normal 0 0 1
    outer loop
      vertex 0 21.8 12
      vertex 78 21.8 12
      vertex 78 23.6 12
    endloop
  endfacet
  facet normal 0 0 1
    outer loop
      vertex 0 21.8 12
      vertex 78 23.6 12
      vertex 0 23.6 12
    endloop
  endfacet
  facet normal 0 -1 0
    outer loop
      vertex 0 21.8 10
      vertex 78 21.8 10
      vertex 78 21.8 12
    endloop
  endfacet
  facet normal 0 -1 0
    outer loop
      vertex 0 21.8 10
      vertex 78 21.8 12
      vertex 0 21.8 12
    endloop
  endfacet
  facet normal 1 0 0
    outer loop
      vertex 78 21.8 10
      vertex 78 23.6 10
      vertex 78 23.6 12
    endloop
  endfacet
  facet normal 1 0 0
    outer loop
      vertex 78 21.8 10
      vertex 78 23.6 12
      vertex 78 21.8 12
    endloop
  endfacet
  facet normal 0 1 0
    outer loop
      vertex 78 23.6 10
      vertex 0 23.6 10
      vertex 0 23.6 12
    endloop
  endfacet
  facet normal 0 1 -0
    outer loop
      vertex 78 23.6 10
      vertex 0 23.6 12
      vertex 78 23.6 12
    endloop
  endfacet
  facet normal -1 0 0
    outer loop
      vertex 0 23.6 10
      vertex 0 21.8 10
      vertex 0 21.8 12
    endloop
  endfacet
  facet normal -1 0 0
    outer loop
      vertex 0 23.6 10
      vertex 0 21.8 12
      vertex 0 23.6 12
    endloop
  endfacet
  facet normal 0 0 -1
    outer loop
      vertex 0 23.6 10
      vertex 54 25 10
      vertex 54 23.6 10
    endloop
  endfacet
  facet normal 0 0 -1
    outer loop
      vertex 0 23.6 10
      vertex 0 25 10
      vertex 54 25 10
    endloop
  endfacet
  facet normal 0 0 1
    outer loop
      vertex 0 23.6 12
      vertex 54 23.6 12
      vertex 54 25 12
    endloop
  endfacet
  facet normal 0 0 1
    outer loop
      vertex 0 23.6 12
      vertex 54 25 12
      vertex 0 25 12
    endloop
  endfacet
  facet normal 0 -1 0
    outer loop
      vertex 0 23.6 10
      vertex 54 23.6 10
      vertex 54 23.6 12
    endloop
  endfacet
  facet normal 0 -1 0
    outer loop
      vertex 0 23.6 10
      vertex 54 23.6 12
      vertex 0 23.6 12
    endloop
  endfacet
  facet normal 1 0 0
    outer loop
      vertex 54 23.6 10
      vertex 54 25 10
      vertex 54 25 12
    endloop
  endfacet
  facet normal 1 0 0
    outer loop
      vertex 54 23.6 10
      vertex 54 25 12
      vertex 54 23.6 12
    endloop
  endfacet
  facet normal 0 1 0
    outer loop
      vertex 54 25 10
      vertex 0 25 10
      vertex 0 25 12
    endloop
  endfacet
  facet normal 0 1 -0
    outer loop
      vertex 54 25 10
      vertex 0 25 12
      vertex 54 25 12
    endloop
  endfacet
  facet normal -1 0 0
    outer loop
      vertex 0 25 10
      vertex 0 23.6 10
      vertex 0 23.6 12
    endloop
  endfacet
  facet normal -1 0 0
    outer loop
      vertex 0 25 10
      vertex 0 23.6 12
      vertex 0 25 12
    endloop
  endfacet
  facet normal 0 0 -1
    outer loop
      vertex 68 23.6 10
      vertex 78 25 10
      vertex 78 23.6 10
    endloop
  endfacet
  facet normal 0 0 -1
    outer loop
      vertex 68 23.6 10
      vertex 68 25 10
      vertex 78 25 10
    endloop
  endfacet
  facet normal 0 0 1
    outer loop
      vertex 68 23.6 12
      vertex 78 23.6 12
      vertex 78 25 12
    endloop
  endfacet
  facet normal 0 0 1
    outer loop
      vertex 68 23.6 12
      vertex 78 25 12
      vertex 68 25 12
    endloop
  endfacet
  facet normal 0 -1 0
    outer loop
      vertex 68 23.6 10
      vertex 78 23.6 10
      vertex 78 23.6 12
    endloop
  endfacet
  facet normal 0 -1 0
    outer loop
      vertex 68 23.6 10
      vertex 78 23.6 12
      vertex 68 23.6 12
    endloop
  endfacet
  facet normal 1 0 0
    outer loop
      vertex 78 23.6 10
      vertex 78 25 10
      vertex 78 25 12
    endloop
  endfacet
  facet normal 1 0 0
    outer loop
      vertex 78 23.6 10
      vertex 78 25 12
      vertex 78 23.6 12
    endloop
  endfacet
  facet normal 0 1 0
    outer loop
      vertex 78 25 10
      vertex 68 25 10
      vertex 68 25 12
    endloop
  endfacet
  facet normal 0 1 -0
    outer loop
      vertex 78 25 10
      vertex 68 25 12
      vertex 78 25 12
    endloop
  endfacet
  facet normal -1 0 0
    outer loop
      vertex 68 25 10
      vertex 68 23.6 10
      vertex 68 23.6 12
    endloop
  endfacet
  facet normal -1 0 0
    outer loop
      vertex 68 25 10
      vertex 68 23.6 12
      vertex 68 25 12
    endloop
  endfacet
  facet normal 0 0 -1
    outer loop
      vertex 0 25 10
      vertex 78 26.8 10
      vertex 78 25 10
    endloop
  endfacet
  facet normal 0 0 -1
    outer loop
      vertex 0 25 10
      vertex 0 26.8 10
      vertex 78 26.8 10
    endloop
  endfacet
  facet normal 0 0 1
    outer loop
      vertex 0 25 12
      vertex 78 25 12
      vertex 78 26.8 12
    endloop
  endfacet
  facet normal 0 0 1
    outer loop
      vertex 0 25 12
      vertex 78 26.8 12
      vertex 0 26.8 12
    endloop
  endfacet
  facet normal 0 -1 0
    outer loop
      vertex 0 25 10
      vertex 78 25 10
      vertex 78 25 12
    endloop
  endfacet
  facet normal 0 -1 0
    outer loop
      vertex 0 25 10
      vertex 78 25 12
      vertex 0 25 12
    endloop
  endfacet
  facet normal 1 0 0
    outer loop
      vertex 78 25 10
      vertex 78 26.8 10
      vertex 78 26.8 12
    endloop
  endfacet
  facet normal 1 0 0
    outer loop
      vertex 78 25 10
      vertex 78 26.8 12
      vertex 78 25 12
    endloop
  endfacet
  facet normal 0 1 0
    outer loop
      vertex 78 26.8 10
      vertex 0 26.8 10
      vertex 0 26.8 12
    endloop
  endfacet
  facet normal 0 1 -0
    outer loop
      vertex 78 26.8 10
      vertex 0 26.8 12
      vertex 78 26.8 12
    endloop
  endfacet
  facet normal -1 0 0
    outer loop
      vertex 0 26.8 10
      vertex 0 25 10
      vertex 0 25 12
    endloop
  endfacet
  facet normal -1 0 0
    outer loop
      vertex 0 26.8 10
      vertex 0 25 12
      vertex 0 26.8 12
    endloop
  endfacet
  facet normal 0 0 -1
    outer loop
      vertex 0 26.8 10
      vertex 54 28.2 10
      vertex 54 26.8 10
    endloop
  endfacet
  facet normal 0 0 -1
    outer loop
      vertex 0 26.8 10
      vertex 0 28.2 10
      vertex 54 28.2 10
    endloop
  endfacet
  facet normal 0 0 1
    outer loop
      vertex 0 26.8 12
      vertex 54 26.8 12
      vertex 54 28.2 12
    endloop
  endfacet
  facet normal 0 0 1
    outer loop
      vertex 0 26.8 12
      vertex 54 28.2 12
      vertex 0 28.2 12
    endloop
  endfacet
  facet normal 0 -1 0
    outer loop
      vertex 0 26.8 10
      vertex 54 26.8 10
      vertex 54 26.8 12
    endloop
  endfacet
  facet normal 0 -1 0
    outer loop
      vertex 0 26.8 10
      vertex 54 26.8 12
      vertex 0 26.8 12
    endloop
  endfacet
  facet normal 1 0 0
    outer loop
      vertex 54 26.8 10
      vertex 54 28.2 10
      vertex 54 28.2 12
    endloop
  endfacet
  facet normal 1 0 0
    outer loop
      vertex 54 26.8 10
      vertex 54 28.2 12
      vertex 54 26.8 12
    endloop
  endfacet
  facet normal 0 1 0
    outer loop
      vertex 54 28.2 10
      vertex 0 28.2 10
      vertex 0 28.2 12
    endloop
  endfacet
  facet normal 0 1 -0
    outer loop
      vertex 54 28.2 10
      vertex 0 28.2 12
      vertex 54 28.2 12
    endloop
  endfacet
  facet normal -1 0 0
    outer loop
      vertex 0 28.2 10
      vertex 0 26.8 10
      vertex 0 26.8 12
    endloop
  endfacet
  facet normal -1 0 0
    outer loop
      vertex 0 28.2 10
      vertex 0 26.8 12
      vertex 0 28.2 12
    endloop
  endfacet
  facet normal 0 0 -1
    outer loop
      vertex 68 26.8 10
      vertex 78 28.2 10
      vertex 78 26.8 10
    endloop
  endfacet
  facet normal 0 0 -1
    outer loop
      vertex 68 26.8 10
      vertex 68 28.2 10
      vertex 78 28.2 10
    endloop
  endfacet
  facet normal 0 0 1
    outer loop
      vertex 68 26.8 12
      vertex 78 26.8 12
      vertex 78 28.2 12
    endloop
  endfacet
  facet normal 0 0 1
    outer loop
      vertex 68 26.8 12
      vertex 78 28.2 12
      vertex 68 28.2 12
    endloop
  endfacet
  facet normal 0 -1 0
    outer loop
      vertex 68 26.8 10
      vertex 78 26.8 10
      vertex 78 26.8 12
    endloop
  endfacet
  facet normal 0 -1 0
    outer loop
      vertex 68 26.8 10
      vertex 78 26.8 12
      vertex 68 26.8 12
    endloop
  endfacet
  facet normal 1 0 0
    outer loop
      vertex 78 26.8 10
      vertex 78 28.2 10
      vertex 78 28.2 12
    endloop
  endfacet
  facet normal 1 0 0
    outer loop
      vertex 78 26.8 10
      vertex 78 28.2 12
      vertex 78 26.8 12
    endloop
  endfacet
  facet normal 0 1 0
    outer loop
      vertex 78 28.2 10
      vertex 68 28.2 10
      vertex 68 28.2 12
    endloop
  endfacet
  facet normal 0 1 -0
    outer loop
      vertex 78 28.2 10
      vertex 68 28.2 12
      vertex 78 28.2 12
    endloop
  endfacet
  facet normal -1 0 0
    outer loop
      vertex 68 28.2 10
      vertex 68 26.8 10
      vertex 68 26.8 12
    endloop
  endfacet
  facet normal -1 0 0
    outer loop
      vertex 68 28.2 10
      vertex 68 26.8 12
      vertex 68 28.2 12
    endloop
  endfacet
  facet normal 0 0 -1
    outer loop
      vertex 0 28.2 10
      vertex 78 42 10
      vertex 78 28.2 10
    endloop
  endfacet
  facet normal 0 0 -1
    outer loop
      vertex 0 28.2 10
      vertex 0 42 10
      vertex 78 42 10
    endloop
  endfacet
  facet normal 0 0 1
    outer loop
      vertex 0 28.2 12
      vertex 78 28.2 12
      vertex 78 42 12
    endloop
  endfacet
  facet normal 0 0 1
    outer loop
      vertex 0 28.2 12
      vertex 78 42 12
      vertex 0 42 12
    endloop
  endfacet
  facet normal 0 -1 0
    outer loop
      vertex 0 28.2 10
      vertex 78 28.2 10
      vertex 78 28.2 12
    endloop
  endfacet
  facet normal 0 -1 0
    outer loop
      vertex 0 28.2 10
      vertex 78 28.2 12
      vertex 0 28.2 12
    endloop
  endfacet
  facet normal 1 0 0
    outer loop
      vertex 78 28.2 10
      vertex 78 42 10
      vertex 78 42 12
    endloop
  endfacet
  facet normal 1 0 0
    outer loop
      vertex 78 28.2 10
      vertex 78 42 12
      vertex 78 28.2 12
    endloop
  endfacet
  facet normal 0 1 0
    outer loop
      vertex 78 42 10
      vertex 0 42 10
      vertex 0 42 12
    endloop
  endfacet
  facet normal 0 1 -0
    outer loop
      vertex 78 42 10
      vertex 0 42 12
      vertex 78 42 12
    endloop
  endfacet
  facet normal -1 0 0
    outer loop
      vertex 0 42 10
      vertex 0 28.2 10
      vertex 0 28.2 12
    endloop
  endfacet
  facet normal -1 0 0
    outer loop
      vertex 0 42 10
      vertex 0 28.2 12
      vertex 0 42 12
    endloop
  endfacet
  facet normal 0 0 -1
    outer loop
      vertex 0 0 0
      vertex 78 2 0
      vertex 78 0 0
    endloop
  endfacet
  facet normal 0 0 -1
    outer loop
      vertex 0 0 0
      vertex 0 2 0
      vertex 78 2 0
    endloop
  endfacet
  facet normal 0 0 1
    outer loop
      vertex 0 0 10
      vertex 78 0 10
      vertex 78 2 10
    endloop
  endfacet
  facet normal 0 0 1
    outer loop
      vertex 0 0 10
      vertex 78 2 10
      vertex 0 2 10
    endloop
  endfacet
  facet normal 0 -1 0
    outer loop
      vertex 0 0 0
      vertex 78 0 0
      vertex 78 0 10
    endloop
  endfacet
  facet normal 0 -1 0
    outer loop
      vertex 0 0 0
      vertex 78 0 10
      vertex 0 0 10
    endloop
  endfacet
  facet normal 1 0 0
    outer loop
      vertex 78 0 0
      vertex 78 2 0
      vertex 78 2 10
    endloop
  endfacet
  facet normal 1 0 0
    outer loop
      vertex 78 0 0
      vertex 78 2 10
      vertex 78 0 10
    endloop
  endfacet
  facet normal 0 1 0
    outer loop
      vertex 78 2 0
      vertex 0 2 0
      vertex 0 2 10
    endloop
  endfacet
  facet normal 0 1 0
    outer loop
      vertex 78 2 0
      vertex 0 2 10
      vertex 78 2 10
    endloop
  endfacet
  facet normal -1 0 0
    outer loop
      vertex 0 2 0
      vertex 0 0 0
      vertex 0 0 10
    endloop
  endfacet
  facet normal -1 0 0
    outer loop
      vertex 0 2 0
      vertex 0 0 10
      vertex 0 2 10
    endloop
  endfacet
  facet normal 0 0 -1
    outer loop
      vertex 0 40 0
      vertex 78 42 0
      vertex 78 40 0
    endloop
  endfacet
  facet normal 0 0 -1
    outer loop
      vertex 0 40 0
      vertex 0 42 0
      vertex 78 42 0
    endloop
  endfacet
  facet normal 0 0 1
    outer loop
      vertex 0 40 10
      vertex 78 40 10
      vertex 78 42 10
    endloop
  endfacet
  facet normal 0 0 1
    outer loop
      vertex 0 40 10
      vertex 78 42 10
      vertex 0 42 10
    endloop
  endfacet
  facet normal 0 -1 0
    outer loop
      vertex 0 40 0
      vertex 78 40 0
      vertex 78 40 10
    endloop
  endfacet
  facet normal 0 -1 0
    outer loop
      vertex 0 40 0
      vertex 78 40 10
      vertex 0 40 10
    endloop
  endfacet
  facet normal 1 0 0
    outer loop
      vertex 78 40 0
      vertex 78 42 0
      vertex 78 42 10
    endloop
  endfacet
  facet normal 1 0 0
    outer loop
      vertex 78 40 0
      vertex 78 42 10
      vertex 78 40 10
    endloop
  endfacet
  facet normal 0 1 0
    outer loop
      vertex 78 42 0
      vertex 0 42 0
      vertex 0 42 10
    endloop
  endfacet
  facet normal 0 1 0
    outer loop
      vertex 78 42 0
      vertex 0 42 10
      vertex 78 42 10
    endloop
  endfacet
  facet normal -1 0 0
    outer loop
      vertex 0 42 0
      vertex 0 40 0
      vertex 0 40 10
    endloop
  endfacet
  facet normal -1 0 0
    outer loop
      vertex 0 42 0
      vertex 0 40 10
      vertex 0 42 10
    endloop
  endfacet
  facet normal 0 0 -1
    outer loop
      vertex 76 0 0
      vertex 78 42 0
      vertex 78 0 0
    endloop
  endfacet
  facet normal 0 0 -1
    outer loop
      vertex 76 0 0
      vertex 76 42 0
      vertex 78 42 0
    endloop
  endfacet
  facet normal 0 0 1
    outer loop
      vertex 76 0 10
      vertex 78 0 10
      vertex 78 42 10
    endloop
  endfacet
  facet normal 0 0 1
    outer loop
      vertex 76 0 10
      vertex 78 42 10
      vertex 76 42 10
    endloop
  endfacet
  facet normal 0 -1 0
    outer loop
      vertex 76 0 0
      vertex 78 0 0
      vertex 78 0 10
    endloop
  endfacet
  facet normal 0 -1 0
    outer loop
      vertex 76 0 0
      vertex 78 0 10
      vertex 76 0 10
    endloop
  endfacet
  facet normal 1 0 0
    outer loop
      vertex 78 0 0
      vertex 78 42 0
      vertex 78 42 10
    endloop
  endfacet
  facet normal 1 0 0
    outer loop
      vertex 78 0 0
      vertex 78 42 10
      vertex 78 0 10
    endloop
  endfacet
  facet normal 0 1 0
    outer loop
      vertex 78 42 0
      vertex 76 42 0
      vertex 76 42 10
    endloop
  endfacet
  facet normal 0 1 0
    outer loop
      vertex 78 42 0
      vertex 76 42 10
      vertex 78 42 10
    endloop
  endfacet
  facet normal -1 0 0
    outer loop
      vertex 76 42 0
      vertex 76 0 0
      vertex 76 0 10
    endloop
  endfacet
  facet normal -1 0 0
    outer loop
      vertex 76 42 0
      vertex 76 0 10
      vertex 76 42 10
    endloop
  endfacet
  facet normal 0 0 -1
    outer loop
      vertex 0 0 0
      vertex 2 14 0
      vertex 2 0 0
    endloop
  endfacet
  facet normal 0 0 -1
    outer loop
      vertex 0 0 0
      vertex 0 14 0
      vertex 2 14 0
    endloop
  endfacet
  facet normal 0 0 1
    outer loop
      vertex 0 0 10
      vertex 2 0 10
      vertex 2 14 10
    endloop
  endfacet
  facet normal 0 0 1
    outer loop
      vertex 0 0 10
      vertex 2 14 10
      vertex 0 14 10
    endloop
  endfacet
  facet normal 0 -1 0
    outer loop
      vertex 0 0 0
      vertex 2 0 0
      vertex 2 0 10
    endloop
  endfacet
  facet normal 0 -1 0
    outer loop
      vertex 0 0 0
      vertex 2 0 10
      vertex 0 0 10
    endloop
  endfacet
  facet normal 1 0 0
    outer loop
      vertex 2 0 0
      vertex 2 14 0
      vertex 2 14 10
    endloop
  endfacet
  facet normal 1 0 0
    outer loop
      vertex 2 0 0
      vertex 2 14 10
      vertex 2 0 10
    endloop
  endfacet
  facet normal 0 1 0
    outer loop
      vertex 2 14 0
      vertex 0 14 0
      vertex 0 14 10
    endloop
  endfacet
  facet normal 0 1 0
    outer loop
      vertex 2 14 0
      vertex 0 14 10
      vertex 2 14 10
    endloop
  endfacet
  facet normal -1 0 0
    outer loop
      vertex 0 14 0
      vertex 0 0 0
      vertex 0 0 10
    endloop
  endfacet
  facet normal -1 0 0
    outer loop
      vertex 0 14 0
      vertex 0 0 10
      vertex 0 14 10
    endloop
  endfacet
  facet normal 0 0 -1
    outer loop
      vertex 0 28 0
      vertex 2 42 0
      vertex 2 28 0
    endloop
  endfacet
  facet normal 0 0 -1
    outer loop
      vertex 0 28 0
      vertex 0 42 0
      vertex 2 42 0
    endloop
  endfacet
  facet normal 0 0 1
    outer loop
      vertex 0 28 10
      vertex 2 28 10
      vertex 2 42 10
    endloop
  endfacet
  facet normal 0 0 1
    outer loop
      vertex 0 28 10
      vertex 2 42 10
      vertex 0 42 10
    endloop
  endfacet
  facet normal 0 -1 0
    outer loop
      vertex 0 28 0
      vertex 2 28 0
      vertex 2 28 10
    endloop
  endfacet
  facet normal 0 -1 0
    outer loop
      vertex 0 28 0
      vertex 2 28 10
      vertex 0 28 10
    endloop
  endfacet
  facet normal 1 0 0
    outer loop
      vertex 2 28 0
      vertex 2 42 0
      vertex 2 42 10
    endloop
  endfacet
  facet normal 1 0 0
    outer loop
      vertex 2 28 0
      vertex 2 42 10
      vertex 2 28 10
    endloop
  endfacet
  facet normal 0 1 0
    outer loop
      vertex 2 42 0
      vertex 0 42 0
      vertex 0 42 10
    endloop
  endfacet
  facet normal 0 1 0
    outer loop
      vertex 2 42 0
      vertex 0 42 10
      vertex 2 42 10
    endloop
  endfacet
  facet normal -1 0 0
    outer loop
      vertex 0 42 0
      vertex 0 28 0
      vertex 0 28 10
    endloop
  endfacet
  facet normal -1 0 0
    outer loop
      vertex 0 42 0
      vertex 0 28 10
      vertex 0 42 10
    endloop
  endfacet
  facet normal 0 0 -1
    outer loop
      vertex 0 14 7
      vertex 2 28 7
      vertex 2 14 7
    endloop
  endfacet
  facet normal 0 0 -1
    outer loop
      vertex 0 14 7
      vertex 0 28 7
      vertex 2 28 7
    endloop
  endfacet
  facet normal 0 0 1
    outer loop
      vertex 0 14 10
      vertex 2 14 10
      vertex 2 28 10
    endloop
  endfacet
  facet normal 0 0 1
    outer loop
      vertex 0 14 10
      vertex 2 28 10
      vertex 0 28 10
    endloop
  endfacet
  facet normal 0 -1 0
    outer loop
      vertex 0 14 7
      vertex 2 14 7
      vertex 2 14 10
    endloop
  endfacet
  facet normal 0 -1 0
    outer loop
      vertex 0 14 7
      vertex 2 14 10
      vertex 0 14 10
    endloop
  endfacet
  facet normal 1 0 0
    outer loop
      vertex 2 14 7
      vertex 2 28 7
      vertex 2 28 10
    endloop
  endfacet
  facet normal 1 0 0
    outer loop
      vertex 2 14 7
      vertex 2 28 10
      vertex 2 14 10
    endloop
  endfacet
  facet normal 0 1 0
    outer loop
      vertex 2 28 7
      vertex 0 28 7
      vertex 0 28 10
    endloop
  endfacet
  facet normal 0 1 0
    outer loop
      vertex 2 28 7
      vertex 0 28 10
      vertex 2 28 10
    endloop
  endfacet
  facet normal -1 0 0
    outer loop
      vertex 0 28 7
      vertex 0 14 7
      vertex 0 14 10
    endloop
  endfacet
  facet normal -1 0 0
    outer loop
      vertex 0 28 7
      vertex 0 14 10
      vertex 0 28 10
    endloop
  endfacet
  facet normal 0 0 -1
    outer loop
      vertex 3 3 -3
      vertex 75 5 -3
      vertex 75 3 -3
    endloop
  endfacet
  facet normal 0 0 -1
    outer loop
      vertex 3 3 -3
      vertex 3 5 -3
      vertex 75 5 -3
    endloop
  endfacet
  facet normal 0 0 1
    outer loop
      vertex 3 3 0
      vertex 75 3 0
      vertex 75 5 0
    endloop
  endfacet
  facet normal 0 0 1
    outer loop
      vertex 3 3 0
      vertex 75 5 0
      vertex 3 5 0
    endloop
  endfacet
  facet normal 0 -1 0
    outer loop
      vertex 3 3 -3
      vertex 75 3 -3
      vertex 75 3 0
    endloop
  endfacet
  facet normal 0 -1 0
    outer loop
      vertex 3 3 -3
      vertex 75 3 0
      vertex 3 3 0
    endloop
  endfacet
  facet normal 1 0 0
    outer loop
      vertex 75 3 -3
      vertex 75 5 -3
      vertex 75 5 0
    endloop
  endfacet
  facet normal 1 0 0
    outer loop
      vertex 75 3 -3
      vertex 75 5 0
      vertex 75 3 0
    endloop
  endfacet
  facet normal 0 1 0
    outer loop
      vertex 75 5 -3
      vertex 3 5 -3
      vertex 3 5 0
    endloop
  endfacet
  facet normal 0 1 0
    outer loop
      vertex 75 5 -3
      vertex 3 5 0
      vertex 75 5 0
    endloop
  endfacet
  facet normal -1 0 0
    outer loop
      vertex 3 5 -3
      vertex 3 3 -3
      vertex 3 3 0
    endloop
  endfacet
  facet normal -1 0 0
    outer loop
      vertex 3 5 -3
      vertex 3 3 0
      vertex 3 5 0
    endloop
  endfacet
  facet normal 0 0 -1
    outer loop
      vertex 3 37 -3
      vertex 75 39 -3
      vertex 75 37 -3
    endloop
  endfacet
  facet normal 0 0 -1
    outer loop
      vertex 3 37 -3
      vertex 3 39 -3
      vertex 75 39 -3
    endloop
  endfacet
  facet normal 0 0 1
    outer loop
      vertex 3 37 0
      vertex 75 37 0
      vertex 75 39 0
    endloop
  endfacet
  facet normal 0 0 1
    outer loop
      vertex 3 37 0
      vertex 75 39 0
      vertex 3 39 0
    endloop
  endfacet
  facet normal 0 -1 0
    outer loop
      vertex 3 37 -3
      vertex 75 37 -3
      vertex 75 37 0
    endloop
  endfacet
  facet normal 0 -1 0
    outer loop
      vertex 3 37 -3
      vertex 75 37 0
      vertex 3 37 0
    endloop
  endfacet
  facet normal 1 0 0
    outer loop
      vertex 75 37 -3
      vertex 75 39 -3
      vertex 75 39 0
    endloop
  endfacet
  facet normal 1 0 0
    outer loop
      vertex 75 37 -3
      vertex 75 39 0
      vertex 75 37 0
    endloop
  endfacet
  facet normal 0 1 0
    outer loop
      vertex 75 39 -3
      vertex 3 39 -3
      vertex 3 39 0
    endloop
  endfacet
  facet normal 0 1 0
    outer loop
      vertex 75 39 -3
      vertex 3 39 0
      vertex 75 39 0
    endloop
  endfacet
  facet normal -1 0 0
    outer loop
      vertex 3 39 -3
      vertex 3 37 -3
      vertex 3 37 0
    endloop
  endfacet
  facet normal -1 0 0
    outer loop
      vertex 3 39 -3
      vertex 3 37 0
      vertex 3 39 0
    endloop
  endfacet
  facet normal 0 0 -1
    outer loop
      vertex 74 3 -3
      vertex 76 39 -3
      vertex 76 3 -3
    endloop
  endfacet
  facet normal 0 0 -1
    outer loop
      vertex 74 3 -3
      vertex 74 39 -3
      vertex 76 39 -3
    endloop
  endfacet
  facet normal 0 0 1
    outer loop
      vertex 74 3 0
      vertex 76 3 0
      vertex 76 39 0
    endloop
  endfacet
  facet normal 0 0 1
    outer loop
      vertex 74 3 0
      vertex 76 39 0
      vertex 74 39 0
    endloop
  endfacet
  facet normal 0 -1 0
    outer loop
      vertex 74 3 -3
      vertex 76 3 -3
      vertex 76 3 0
    endloop
  endfacet
  facet normal 0 -1 0
    outer loop
      vertex 74 3 -3
      vertex 76 3 0
      vertex 74 3 0
    endloop
  endfacet
  facet normal 1 0 0
    outer loop
      vertex 76 3 -3
      vertex 76 39 -3
      vertex 76 39 0
    endloop
  endfacet
  facet normal 1 0 0
    outer loop
      vertex 76 3 -3
      vertex 76 39 0
      vertex 76 3 0
    endloop
  endfacet
  facet normal 0 1 0
    outer loop
      vertex 76 39 -3
      vertex 74 39 -3
      vertex 74 39 0
    endloop
  endfacet
  facet normal 0 1 0
    outer loop
      vertex 76 39 -3
      vertex 74 39 0
      vertex 76 39 0
    endloop
  endfacet
  facet normal -1 0 0
    outer loop
      vertex 74 39 -3
      vertex 74 3 -3
      vertex 74 3 0
    endloop
  endfacet
  facet normal -1 0 0
    outer loop
      vertex 74 39 -3
      vertex 74 3 0
      vertex 74 39 0
    endloop
  endfacet
  facet normal 0 0 -1
    outer loop
      vertex 3 3 -3
      vertex 5 13 -3
      vertex 5 3 -3
    endloop
  endfacet
  facet normal 0 0 -1
    outer loop
      vertex 3 3 -3
      vertex 3 13 -3
      vertex 5 13 -3
    endloop
  endfacet
  facet normal 0 0 1
    outer loop
      vertex 3 3 0
      vertex 5 3 0
      vertex 5 13 0
    endloop
  endfacet
  facet normal 0 0 1
    outer loop
      vertex 3 3 0
      vertex 5 13 0
      vertex 3 13 0
    endloop
  endfacet
  facet normal 0 -1 0
    outer loop
      vertex 3 3 -3
      vertex 5 3 -3
      vertex 5 3 0
    endloop
  endfacet
  facet normal 0 -1 0
    outer loop
      vertex 3 3 -3
      vertex 5 3 0
      vertex 3 3 0
    endloop
  endfacet
  facet normal 1 0 0
    outer loop
      vertex 5 3 -3
      vertex 5 13 -3
      vertex 5 13 0
    endloop
  endfacet
  facet normal 1 0 0
    outer loop
      vertex 5 3 -3
      vertex 5 13 0
      vertex 5 3 0
    endloop
  endfacet
  facet normal 0 1 0
    outer loop
      vertex 5 13 -3
      vertex 3 13 -3
      vertex 3 13 0
    endloop
  endfacet
  facet normal 0 1 0
    outer loop
      vertex 5 13 -3
      vertex 3 13 0
      vertex 5 13 0
    endloop
  endfacet
  facet normal -1 0 0
    outer loop
      vertex 3 13 -3
      vertex 3 3 -3
      vertex 3 3 0
    endloop
  endfacet
  facet normal -1 0 0
    outer loop
      vertex 3 13 -3
      vertex 3 3 0
      vertex 3 13 0
    endloop
  endfacet
  facet normal 0 0 -1
    outer loop
      vertex 3 29 -3
      vertex 5 39 -3
      vertex 5 29 -3
    endloop
  endfacet
  facet normal 0 0 -1
    outer loop
      vertex 3 29 -3
      vertex 3 39 -3
      vertex 5 39 -3
    endloop
  endfacet
  facet normal 0 0 1
    outer loop
      vertex 3 29 0
      vertex 5 29 0
      vertex 5 39 0
    endloop
  endfacet
  facet normal 0 0 1
    outer loop
      vertex 3 29 0
      vertex 5 39 0
      vertex 3 39 0
    endloop
  endfacet
  facet normal 0 -1 0
    outer loop
      vertex 3 29 -3
      vertex 5 29 -3
      vertex 5 29 0
    endloop
  endfacet
  facet normal 0 -1 0
    outer loop
      vertex 3 29 -3
      vertex 5 29 0
      vertex 3 29 0
    endloop
  endfacet
  facet normal 1 0 0
    outer loop
      vertex 5 29 -3
      vertex 5 39 -3
      vertex 5 39 0
    endloop
  endfacet
  facet normal 1 0 0
    outer loop
      vertex 5 29 -3
      vertex 5 39 0
      vertex 5 29 0
    endloop
  endfacet
  facet normal 0 1 0
    outer loop
      vertex 5 39 -3
      vertex 3 39 -3
      vertex 3 39 0
    endloop
  endfacet
  facet normal 0 1 0
    outer loop
      vertex 5 39 -3
      vertex 3 39 0
      vertex 5 39 0
    endloop
  endfacet
  facet normal -1 0 0
    outer loop
      vertex 3 39 -3
      vertex 3 29 -3
      vertex 3 29 0
    endloop
  endfacet
  facet normal -1 0 0
    outer loop
      vertex 3 39 -3
      vertex 3 29 0
      vertex 3 39 0
    endloop
  endfacet
  facet normal 0 0 -1
    outer loop
      vertex 52 11 12
      vertex 70 31 12
      vertex 70 11 12
    endloop
  endfacet
  facet normal 0 0 -1
    outer loop
      vertex 52 11 12
      vertex 52 31 12
      vertex 70 31 12
    endloop
  endfacet
  facet normal 0 0 1
    outer loop
      vertex 52 11 12.8
      vertex 70 11 12.8
      vertex 70 31 12.8
    endloop
  endfacet
  facet normal 0 0 1
    outer loop
      vertex 52 11 12.8
      vertex 70 31 12.8
      vertex 52 31 12.8
    endloop
  endfacet
  facet normal 0 -1 0
    outer loop
      vertex 52 11 12
      vertex 70 11 12
      vertex 70 11 12.8
    endloop
  endfacet
  facet normal 0 -1 0
    outer loop
      vertex 52 11 12
      vertex 70 11 12.8
      vertex 52 11 12.8
    endloop
  endfacet
  facet normal 1 0 0
    outer loop
      vertex 70 11 12
      vertex 70 31 12
      vertex 70 31 12.8
    endloop
  endfacet
  facet normal 1 0 0
    outer loop
      vertex 70 11 12
      vertex 70 31 12.8
      vertex 70 11 12.8
    endloop
  endfacet
  facet normal 0 1 0
    outer loop
      vertex 70 31 12
      vertex 52 31 12
      vertex 52 31 12.8
    endloop
  endfacet
  facet normal 0 1 0
    outer loop
      vertex 70 31 12
      vertex 52 31 12.8
      vertex 70 31 12.8
    endloop
  endfacet
  facet normal -1 0 0
    outer loop
      vertex 52 31 12
      vertex 52 11 12
      vertex 52 11 12.8
    endloop
  endfacet
  facet normal -1 0 0
    outer loop
      vertex 52 31 12
      vertex 52 11 12.8
      vertex 52 31 12.8
    endloop
  endfacet
endsolid esp32_dongle_case_lid_deep
