solid esp32_dongle_case_bottom
  facet normal 0 0 -1
    outer loop
      vertex 0 0 0
      vertex 78 42 0
      vertex 78 0 0
    endloop
  endfacet
  facet normal 0 0 -1
    outer loop
      vertex 0 0 0
      vertex 0 42 0
      vertex 78 42 0
    endloop
  endfacet
  facet normal 0 0 1
    outer loop
      vertex 0 0 2
      vertex 78 0 2
      vertex 78 42 2
    endloop
  endfacet
  facet normal 0 0 1
    outer loop
      vertex 0 0 2
      vertex 78 42 2
      vertex 0 42 2
    endloop
  endfacet
  facet normal 0 -1 0
    outer loop
      vertex 0 0 0
      vertex 78 0 0
      vertex 78 0 2
    endloop
  endfacet
  facet normal 0 -1 0
    outer loop
      vertex 0 0 0
      vertex 78 0 2
      vertex 0 0 2
    endloop
  endfacet
  facet normal 1 0 0
    outer loop
      vertex 78 0 0
      vertex 78 42 0
      vertex 78 42 2
    endloop
  endfacet
  facet normal 1 0 0
    outer loop
      vertex 78 0 0
      vertex 78 42 2
      vertex 78 0 2
    endloop
  endfacet
  facet normal 0 1 0
    outer loop
      vertex 78 42 0
      vertex 0 42 0
      vertex 0 42 2
    endloop
  endfacet
  facet normal 0 1 0
    outer loop
      vertex 78 42 0
      vertex 0 42 2
      vertex 78 42 2
    endloop
  endfacet
  facet normal -1 0 0
    outer loop
      vertex 0 42 0
      vertex 0 0 0
      vertex 0 0 2
    endloop
  endfacet
  facet normal -1 0 0
    outer loop
      vertex 0 42 0
      vertex 0 0 2
      vertex 0 42 2
    endloop
  endfacet
  facet normal 0 0 -1
    outer loop
      vertex 2 0 2
      vertex 76 2 2
      vertex 76 0 2
    endloop
  endfacet
  facet normal 0 0 -1
    outer loop
      vertex 2 0 2
      vertex 2 2 2
      vertex 76 2 2
    endloop
  endfacet
  facet normal 0 0 1
    outer loop
      vertex 2 0 16
      vertex 76 0 16
      vertex 76 2 16
    endloop
  endfacet
  facet normal 0 0 1
    outer loop
      vertex 2 0 16
      vertex 76 2 16
      vertex 2 2 16
    endloop
  endfacet
  facet normal 0 -1 0
    outer loop
      vertex 2 0 2
      vertex 76 0 2
      vertex 76 0 16
    endloop
  endfacet
  facet normal 0 -1 0
    outer loop
      vertex 2 0 2
      vertex 76 0 16
      vertex 2 0 16
    endloop
  endfacet
  facet normal 1 0 0
    outer loop
      vertex 76 0 2
      vertex 76 2 2
      vertex 76 2 16
    endloop
  endfacet
  facet normal 1 0 0
    outer loop
      vertex 76 0 2
      vertex 76 2 16
      vertex 76 0 16
    endloop
  endfacet
  facet normal 0 1 0
    outer loop
      vertex 76 2 2
      vertex 2 2 2
      vertex 2 2 16
    endloop
  endfacet
  facet normal 0 1 0
    outer loop
      vertex 76 2 2
      vertex 2 2 16
      vertex 76 2 16
    endloop
  endfacet
  facet normal -1 0 0
    outer loop
      vertex 2 2 2
      vertex 2 0 2
      vertex 2 0 16
    endloop
  endfacet
  facet normal -1 0 0
    outer loop
      vertex 2 2 2
      vertex 2 0 16
      vertex 2 2 16
    endloop
  endfacet
  facet normal 0 0 -1
    outer loop
      vertex 2 40 2
      vertex 76 42 2
      vertex 76 40 2
    endloop
  endfacet
  facet normal 0 0 -1
    outer loop
      vertex 2 40 2
      vertex 2 42 2
      vertex 76 42 2
    endloop
  endfacet
  facet normal 0 0 1
    outer loop
      vertex 2 40 16
      vertex 76 40 16
      vertex 76 42 16
    endloop
  endfacet
  facet normal 0 0 1
    outer loop
      vertex 2 40 16
      vertex 76 42 16
      vertex 2 42 16
    endloop
  endfacet
  facet normal 0 -1 0
    outer loop
      vertex 2 40 2
      vertex 76 40 2
      vertex 76 40 16
    endloop
  endfacet
  facet normal 0 -1 0
    outer loop
      vertex 2 40 2
      vertex 76 40 16
      vertex 2 40 16
    endloop
  endfacet
  facet normal 1 0 0
    outer loop
      vertex 76 40 2
      vertex 76 42 2
      vertex 76 42 16
    endloop
  endfacet
  facet normal 1 0 0
    outer loop
      vertex 76 40 2
      vertex 76 42 16
      vertex 76 40 16
    endloop
  endfacet
  facet normal 0 1 0
    outer loop
      vertex 76 42 2
      vertex 2 42 2
      vertex 2 42 16
    endloop
  endfacet
  facet normal 0 1 0
    outer loop
      vertex 76 42 2
      vertex 2 42 16
      vertex 76 42 16
    endloop
  endfacet
  facet normal -1 0 0
    outer loop
      vertex 2 42 2
      vertex 2 40 2
      vertex 2 40 16
    endloop
  endfacet
  facet normal -1 0 0
    outer loop
      vertex 2 42 2
      vertex 2 40 16
      vertex 2 42 16
    endloop
  endfacet
  facet normal 0 0 -1
    outer loop
      vertex 76 0 2
      vertex 78 42 2
      vertex 78 0 2
    endloop
  endfacet
  facet normal 0 0 -1
    outer loop
      vertex 76 0 2
      vertex 76 42 2
      vertex 78 42 2
    endloop
  endfacet
  facet normal 0 0 1
    outer loop
      vertex 76 0 16
      vertex 78 0 16
      vertex 78 42 16
    endloop
  endfacet
  facet normal 0 0 1
    outer loop
      vertex 76 0 16
      vertex 78 42 16
      vertex 76 42 16
    endloop
  endfacet
  facet normal 0 -1 0
    outer loop
      vertex 76 0 2
      vertex 78 0 2
      vertex 78 0 16
    endloop
  endfacet
  facet normal 0 -1 0
    outer loop
      vertex 76 0 2
      vertex 78 0 16
      vertex 76 0 16
    endloop
  endfacet
  facet normal 1 0 0
    outer loop
      vertex 78 0 2
      vertex 78 42 2
      vertex 78 42 16
    endloop
  endfacet
  facet normal 1 0 0
    outer loop
      vertex 78 0 2
      vertex 78 42 16
      vertex 78 0 16
    endloop
  endfacet
  facet normal 0 1 0
    outer loop
      vertex 78 42 2
      vertex 76 42 2
      vertex 76 42 16
    endloop
  endfacet
  facet normal 0 1 0
    outer loop
      vertex 78 42 2
      vertex 76 42 16
      vertex 78 42 16
    endloop
  endfacet
  facet normal -1 0 0
    outer loop
      vertex 76 42 2
      vertex 76 0 2
      vertex 76 0 16
    endloop
  endfacet
  facet normal -1 0 0
    outer loop
      vertex 76 42 2
      vertex 76 0 16
      vertex 76 42 16
    endloop
  endfacet
  facet normal 0 0 -1
    outer loop
      vertex 0 0 2
      vertex 2 14 2
      vertex 2 0 2
    endloop
  endfacet
  facet normal 0 0 -1
    outer loop
      vertex 0 0 2
      vertex 0 14 2
      vertex 2 14 2
    endloop
  endfacet
  facet normal 0 0 1
    outer loop
      vertex 0 0 16
      vertex 2 0 16
      vertex 2 14 16
    endloop
  endfacet
  facet normal 0 0 1
    outer loop
      vertex 0 0 16
      vertex 2 14 16
      vertex 0 14 16
    endloop
  endfacet
  facet normal 0 -1 0
    outer loop
      vertex 0 0 2
      vertex 2 0 2
      vertex 2 0 16
    endloop
  endfacet
  facet normal 0 -1 0
    outer loop
      vertex 0 0 2
      vertex 2 0 16
      vertex 0 0 16
    endloop
  endfacet
  facet normal 1 0 0
    outer loop
      vertex 2 0 2
      vertex 2 14 2
      vertex 2 14 16
    endloop
  endfacet
  facet normal 1 0 0
    outer loop
      vertex 2 0 2
      vertex 2 14 16
      vertex 2 0 16
    endloop
  endfacet
  facet normal 0 1 0
    outer loop
      vertex 2 14 2
      vertex 0 14 2
      vertex 0 14 16
    endloop
  endfacet
  facet normal 0 1 0
    outer loop
      vertex 2 14 2
      vertex 0 14 16
      vertex 2 14 16
    endloop
  endfacet
  facet normal -1 0 0
    outer loop
      vertex 0 14 2
      vertex 0 0 2
      vertex 0 0 16
    endloop
  endfacet
  facet normal -1 0 0
    outer loop
      vertex 0 14 2
      vertex 0 0 16
      vertex 0 14 16
    endloop
  endfacet
  facet normal 0 0 -1
    outer loop
      vertex 0 28 2
      vertex 2 42 2
      vertex 2 28 2
    endloop
  endfacet
  facet normal 0 0 -1
    outer loop
      vertex 0 28 2
      vertex 0 42 2
      vertex 2 42 2
    endloop
  endfacet
  facet normal 0 0 1
    outer loop
      vertex 0 28 16
      vertex 2 28 16
      vertex 2 42 16
    endloop
  endfacet
  facet normal 0 0 1
    outer loop
      vertex 0 28 16
      vertex 2 42 16
      vertex 0 42 16
    endloop
  endfacet
  facet normal 0 -1 0
    outer loop
      vertex 0 28 2
      vertex 2 28 2
      vertex 2 28 16
    endloop
  endfacet
  facet normal 0 -1 0
    outer loop
      vertex 0 28 2
      vertex 2 28 16
      vertex 0 28 16
    endloop
  endfacet
  facet normal 1 0 0
    outer loop
      vertex 2 28 2
      vertex 2 42 2
      vertex 2 42 16
    endloop
  endfacet
  facet normal 1 0 0
    outer loop
      vertex 2 28 2
      vertex 2 42 16
      vertex 2 28 16
    endloop
  endfacet
  facet normal 0 1 0
    outer loop
      vertex 2 42 2
      vertex 0 42 2
      vertex 0 42 16
    endloop
  endfacet
  facet normal 0 1 0
    outer loop
      vertex 2 42 2
      vertex 0 42 16
      vertex 2 42 16
    endloop
  endfacet
  facet normal -1 0 0
    outer loop
      vertex 0 42 2
      vertex 0 28 2
      vertex 0 28 16
    endloop
  endfacet
  facet normal -1 0 0
    outer loop
      vertex 0 42 2
      vertex 0 28 16
      vertex 0 42 16
    endloop
  endfacet
  facet normal 0 0 -1
    outer loop
      vertex 0 14 11
      vertex 2 28 11
      vertex 2 14 11
    endloop
  endfacet
  facet normal 0 0 -1
    outer loop
      vertex 0 14 11
      vertex 0 28 11
      vertex 2 28 11
    endloop
  endfacet
  facet normal 0 0 1
    outer loop
      vertex 0 14 16
      vertex 2 14 16
      vertex 2 28 16
    endloop
  endfacet
  facet normal 0 0 1
    outer loop
      vertex 0 14 16
      vertex 2 28 16
      vertex 0 28 16
    endloop
  endfacet
  facet normal 0 -1 0
    outer loop
      vertex 0 14 11
      vertex 2 14 11
      vertex 2 14 16
    endloop
  endfacet
  facet normal 0 -1 0
    outer loop
      vertex 0 14 11
      vertex 2 14 16
      vertex 0 14 16
    endloop
  endfacet
  facet normal 1 0 0
    outer loop
      vertex 2 14 11
      vertex 2 28 11
      vertex 2 28 16
    endloop
  endfacet
  facet normal 1 0 0
    outer loop
      vertex 2 14 11
      vertex 2 28 16
      vertex 2 14 16
    endloop
  endfacet
  facet normal 0 1 0
    outer loop
      vertex 2 28 11
      vertex 0 28 11
      vertex 0 28 16
    endloop
  endfacet
  facet normal 0 1 0
    outer loop
      vertex 2 28 11
      vertex 0 28 16
      vertex 2 28 16
    endloop
  endfacet
  facet normal -1 0 0
    outer loop
      vertex 0 28 11
      vertex 0 14 11
      vertex 0 14 16
    endloop
  endfacet
  facet normal -1 0 0
    outer loop
      vertex 0 28 11
      vertex 0 14 16
      vertex 0 28 16
    endloop
  endfacet
  facet normal 0 0 -1
    outer loop
      vertex 10 8 2
      vertex 66 10 2
      vertex 66 8 2
    endloop
  endfacet
  facet normal 0 0 -1
    outer loop
      vertex 10 8 2
      vertex 10 10 2
      vertex 66 10 2
    endloop
  endfacet
  facet normal 0 0 1
    outer loop
      vertex 10 8 4
      vertex 66 8 4
      vertex 66 10 4
    endloop
  endfacet
  facet normal 0 0 1
    outer loop
      vertex 10 8 4
      vertex 66 10 4
      vertex 10 10 4
    endloop
  endfacet
  facet normal 0 -1 0
    outer loop
      vertex 10 8 2
      vertex 66 8 2
      vertex 66 8 4
    endloop
  endfacet
  facet normal 0 -1 0
    outer loop
      vertex 10 8 2
      vertex 66 8 4
      vertex 10 8 4
    endloop
  endfacet
  facet normal 1 0 0
    outer loop
      vertex 66 8 2
      vertex 66 10 2
      vertex 66 10 4
    endloop
  endfacet
  facet normal 1 0 0
    outer loop
      vertex 66 8 2
      vertex 66 10 4
      vertex 66 8 4
    endloop
  endfacet
  facet normal 0 1 0
    outer loop
      vertex 66 10 2
      vertex 10 10 2
      vertex 10 10 4
    endloop
  endfacet
  facet normal 0 1 0
    outer loop
      vertex 66 10 2
      vertex 10 10 4
      vertex 66 10 4
    endloop
  endfacet
  facet normal -1 0 0
    outer loop
      vertex 10 10 2
      vertex 10 8 2
      vertex 10 8 4
    endloop
  endfacet
  facet normal -1 0 0
    outer loop
      vertex 10 10 2
      vertex 10 8 4
      vertex 10 10 4
    endloop
  endfacet
  facet normal 0 0 -1
    outer loop
      vertex 10 32 2
      vertex 66 34 2
      vertex 66 32 2
    endloop
  endfacet
  facet normal 0 0 -1
    outer loop
      vertex 10 32 2
      vertex 10 34 2
      vertex 66 34 2
    endloop
  endfacet
  facet normal 0 0 1
    outer loop
      vertex 10 32 4
      vertex 66 32 4
      vertex 66 34 4
    endloop
  endfacet
  facet normal 0 0 1
    outer loop
      vertex 10 32 4
      vertex 66 34 4
      vertex 10 34 4
    endloop
  endfacet
  facet normal 0 -1 0
    outer loop
      vertex 10 32 2
      vertex 66 32 2
      vertex 66 32 4
    endloop
  endfacet
  facet normal 0 -1 0
    outer loop
      vertex 10 32 2
      vertex 66 32 4
      vertex 10 32 4
    endloop
  endfacet
  facet normal 1 0 0
    outer loop
      vertex 66 32 2
      vertex 66 34 2
      vertex 66 34 4
    endloop
  endfacet
  facet normal 1 0 0
    outer loop
      vertex 66 32 2
      vertex 66 34 4
      vertex 66 32 4
    endloop
  endfacet
  facet normal 0 1 0
    outer loop
      vertex 66 34 2
      vertex 10 34 2
      vertex 10 34 4
    endloop
  endfacet
  facet normal 0 1 0
    outer loop
      vertex 66 34 2
      vertex 10 34 4
      vertex 66 34 4
    endloop
  endfacet
  facet normal -1 0 0
    outer loop
      vertex 10 34 2
      vertex 10 32 2
      vertex 10 32 4
    endloop
  endfacet
  facet normal -1 0 0
    outer loop
      vertex 10 34 2
      vertex 10 32 4
      vertex 10 34 4
    endloop
  endfacet
  facet normal 0 0 -1
    outer loop
      vertex 17 10.5 2
      vertex 19.55 11.0072 2
      vertex 19.6 10.5 2
    endloop
  endfacet
  facet normal 0 0 1
    outer loop
      vertex 17 10.5 5
      vertex 19.6 10.5 5
      vertex 19.55 11.0072 5
    endloop
  endfacet
  facet normal 0.995185 0.0980171 0
    outer loop
      vertex 19.6 10.5 2
      vertex 19.55 11.0072 2
      vertex 19.55 11.0072 5
    endloop
  endfacet
  facet normal 0.995185 0.0980171 -0
    outer loop
      vertex 19.6 10.5 2
      vertex 19.55 11.0072 5
      vertex 19.6 10.5 5
    endloop
  endfacet
  facet normal 0 0 -1
    outer loop
      vertex 17 10.5 2
      vertex 19.4021 11.495 2
      vertex 19.55 11.0072 2
    endloop
  endfacet
  facet normal 0 0 1
    outer loop
      vertex 17 10.5 5
      vertex 19.55 11.0072 5
      vertex 19.4021 11.495 5
    endloop
  endfacet
  facet normal 0.95694 0.290285 0
    outer loop
      vertex 19.55 11.0072 2
      vertex 19.4021 11.495 2
      vertex 19.4021 11.495 5
    endloop
  endfacet
  facet normal 0.95694 0.290285 -0
    outer loop
      vertex 19.55 11.0072 2
      vertex 19.4021 11.495 5
      vertex 19.55 11.0072 5
    endloop
  endfacet
  facet normal 0 0 -1
    outer loop
      vertex 17 10.5 2
      vertex 19.1618 11.9445 2
      vertex 19.4021 11.495 2
    endloop
  endfacet
  facet normal 0 0 1
    outer loop
      vertex 17 10.5 5
      vertex 19.4021 11.495 5
      vertex 19.1618 11.9445 5
    endloop
  endfacet
  facet normal 0.881921 0.471397 0
    outer loop
      vertex 19.4021 11.495 2
      vertex 19.1618 11.9445 2
      vertex 19.1618 11.9445 5
    endloop
  endfacet
  facet normal 0.881921 0.471397 -0
    outer loop
      vertex 19.4021 11.495 2
      vertex 19.1618 11.9445 5
      vertex 19.4021 11.495 5
    endloop
  endfacet
  facet normal 0 0 -1
    outer loop
      vertex 17 10.5 2
      vertex 18.8385 12.3385 2
      vertex 19.1618 11.9445 2
    endloop
  endfacet
  facet normal 0 0 1
    outer loop
      vertex 17 10.5 5
      vertex 19.1618 11.9445 5
      vertex 18.8385 12.3385 5
    endloop
  endfacet
  facet normal 0.77301 0.634393 0
    outer loop
      vertex 19.1618 11.9445 2
      vertex 18.8385 12.3385 2
      vertex 18.8385 12.3385 5
    endloop
  endfacet
  facet normal 0.77301 0.634393 -0
    outer loop
      vertex 19.1618 11.9445 2
      vertex 18.8385 12.3385 5
      vertex 19.1618 11.9445 5
    endloop
  endfacet
  facet normal 0 0 -1
    outer loop
      vertex 17 10.5 2
      vertex 18.4445 12.6618 2
      vertex 18.8385 12.3385 2
    endloop
  endfacet
  facet normal 0 0 1
    outer loop
      vertex 17 10.5 5
      vertex 18.8385 12.3385 5
      vertex 18.4445 12.6618 5
    endloop
  endfacet
  facet normal 0.634393 0.77301 0
    outer loop
      vertex 18.8385 12.3385 2
      vertex 18.4445 12.6618 2
      vertex 18.4445 12.6618 5
    endloop
  endfacet
  facet normal 0.634393 0.77301 -0
    outer loop
      vertex 18.8385 12.3385 2
      vertex 18.4445 12.6618 5
      vertex 18.8385 12.3385 5
    endloop
  endfacet
  facet normal 0 0 -1
    outer loop
      vertex 17 10.5 2
      vertex 17.995 12.9021 2
      vertex 18.4445 12.6618 2
    endloop
  endfacet
  facet normal 0 0 1
    outer loop
      vertex 17 10.5 5
      vertex 18.4445 12.6618 5
      vertex 17.995 12.9021 5
    endloop
  endfacet
  facet normal 0.471397 0.881921 0
    outer loop
      vertex 18.4445 12.6618 2
      vertex 17.995 12.9021 2
      vertex 17.995 12.9021 5
    endloop
  endfacet
  facet normal 0.471397 0.881921 -0
    outer loop
      vertex 18.4445 12.6618 2
      vertex 17.995 12.9021 5
      vertex 18.4445 12.6618 5
    endloop
  endfacet
  facet normal 0 0 -1
    outer loop
      vertex 17 10.5 2
      vertex 17.5072 13.05 2
      vertex 17.995 12.9021 2
    endloop
  endfacet
  facet normal 0 0 1
    outer loop
      vertex 17 10.5 5
      vertex 17.995 12.9021 5
      vertex 17.5072 13.05 5
    endloop
  endfacet
  facet normal 0.290285 0.95694 0
    outer loop
      vertex 17.995 12.9021 2
      vertex 17.5072 13.05 2
      vertex 17.5072 13.05 5
    endloop
  endfacet
  facet normal 0.290285 0.95694 -0
    outer loop
      vertex 17.995 12.9021 2
      vertex 17.5072 13.05 5
      vertex 17.995 12.9021 5
    endloop
  endfacet
  facet normal 0 0 -1
    outer loop
      vertex 17 10.5 2
      vertex 17 13.1 2
      vertex 17.5072 13.05 2
    endloop
  endfacet
  facet normal 0 0 1
    outer loop
      vertex 17 10.5 5
      vertex 17.5072 13.05 5
      vertex 17 13.1 5
    endloop
  endfacet
  facet normal 0.0980171 0.995185 0
    outer loop
      vertex 17.5072 13.05 2
      vertex 17 13.1 2
      vertex 17 13.1 5
    endloop
  endfacet
  facet normal 0.0980171 0.995185 -0
    outer loop
      vertex 17.5072 13.05 2
      vertex 17 13.1 5
      vertex 17.5072 13.05 5
    endloop
  endfacet
  facet normal 0 0 -1
    outer loop
      vertex 17 10.5 2
      vertex 16.4928 13.05 2
      vertex 17 13.1 2
    endloop
  endfacet
  facet normal 0 -0 1
    outer loop
      vertex 17 10.5 5
      vertex 17 13.1 5
      vertex 16.4928 13.05 5
    endloop
  endfacet
  facet normal -0.0980171 0.995185 0
    outer loop
      vertex 17 13.1 2
      vertex 16.4928 13.05 2
      vertex 16.4928 13.05 5
    endloop
  endfacet
  facet normal -0.0980171 0.995185 0
    outer loop
      vertex 17 13.1 2
      vertex 16.4928 13.05 5
      vertex 17 13.1 5
    endloop
  endfacet
  facet normal 0 0 -1
    outer loop
      vertex 17 10.5 2
      vertex 16.005 12.9021 2
      vertex 16.4928 13.05 2
    endloop
  endfacet
  facet normal 0 0 1
    outer loop
      vertex 17 10.5 5
      vertex 16.4928 13.05 5
      vertex 16.005 12.9021 5
    endloop
  endfacet
  facet normal -0.290285 0.95694 0
    outer loop
      vertex 16.4928 13.05 2
      vertex 16.005 12.9021 2
      vertex 16.005 12.9021 5
    endloop
  endfacet
  facet normal -0.290285 0.95694 0
    outer loop
      vertex 16.4928 13.05 2
      vertex 16.005 12.9021 5
      vertex 16.4928 13.05 5
    endloop
  endfacet
  facet normal 0 0 -1
    outer loop
      vertex 17 10.5 2
      vertex 15.5555 12.6618 2
      vertex 16.005 12.9021 2
    endloop
  endfacet
  facet normal 0 0 1
    outer loop
      vertex 17 10.5 5
      vertex 16.005 12.9021 5
      vertex 15.5555 12.6618 5
    endloop
  endfacet
  facet normal -0.471397 0.881921 0
    outer loop
      vertex 16.005 12.9021 2
      vertex 15.5555 12.6618 2
      vertex 15.5555 12.6618 5
    endloop
  endfacet
  facet normal -0.471397 0.881921 0
    outer loop
      vertex 16.005 12.9021 2
      vertex 15.5555 12.6618 5
      vertex 16.005 12.9021 5
    endloop
  endfacet
  facet normal 0 0 -1
    outer loop
      vertex 17 10.5 2
      vertex 15.1615 12.3385 2
      vertex 15.5555 12.6618 2
    endloop
  endfacet
  facet normal 0 0 1
    outer loop
      vertex 17 10.5 5
      vertex 15.5555 12.6618 5
      vertex 15.1615 12.3385 5
    endloop
  endfacet
  facet normal -0.634393 0.77301 0
    outer loop
      vertex 15.5555 12.6618 2
      vertex 15.1615 12.3385 2
      vertex 15.1615 12.3385 5
    endloop
  endfacet
  facet normal -0.634393 0.77301 0
    outer loop
      vertex 15.5555 12.6618 2
      vertex 15.1615 12.3385 5
      vertex 15.5555 12.6618 5
    endloop
  endfacet
  facet normal 0 0 -1
    outer loop
      vertex 17 10.5 2
      vertex 14.8382 11.9445 2
      vertex 15.1615 12.3385 2
    endloop
  endfacet
  facet normal 0 0 1
    outer loop
      vertex 17 10.5 5
      vertex 15.1615 12.3385 5
      vertex 14.8382 11.9445 5
    endloop
  endfacet
  facet normal -0.77301 0.634393 0
    outer loop
      vertex 15.1615 12.3385 2
      vertex 14.8382 11.9445 2
      vertex 14.8382 11.9445 5
    endloop
  endfacet
  facet normal -0.77301 0.634393 0
    outer loop
      vertex 15.1615 12.3385 2
      vertex 14.8382 11.9445 5
      vertex 15.1615 12.3385 5
    endloop
  endfacet
  facet normal 0 0 -1
    outer loop
      vertex 17 10.5 2
      vertex 14.5979 11.495 2
      vertex 14.8382 11.9445 2
    endloop
  endfacet
  facet normal 0 0 1
    outer loop
      vertex 17 10.5 5
      vertex 14.8382 11.9445 5
      vertex 14.5979 11.495 5
    endloop
  endfacet
  facet normal -0.881921 0.471397 0
    outer loop
      vertex 14.8382 11.9445 2
      vertex 14.5979 11.495 2
      vertex 14.5979 11.495 5
    endloop
  endfacet
  facet normal -0.881921 0.471397 0
    outer loop
      vertex 14.8382 11.9445 2
      vertex 14.5979 11.495 5
      vertex 14.8382 11.9445 5
    endloop
  endfacet
  facet normal 0 0 -1
    outer loop
      vertex 17 10.5 2
      vertex 14.45 11.0072 2
      vertex 14.5979 11.495 2
    endloop
  endfacet
  facet normal 0 0 1
    outer loop
      vertex 17 10.5 5
      vertex 14.5979 11.495 5
      vertex 14.45 11.0072 5
    endloop
  endfacet
  facet normal -0.95694 0.290285 0
    outer loop
      vertex 14.5979 11.495 2
      vertex 14.45 11.0072 2
      vertex 14.45 11.0072 5
    endloop
  endfacet
  facet normal -0.95694 0.290285 0
    outer loop
      vertex 14.5979 11.495 2
      vertex 14.45 11.0072 5
      vertex 14.5979 11.495 5
    endloop
  endfacet
  facet normal 0 0 -1
    outer loop
      vertex 17 10.5 2
      vertex 14.4 10.5 2
      vertex 14.45 11.0072 2
    endloop
  endfacet
  facet normal 0 0 1
    outer loop
      vertex 17 10.5 5
      vertex 14.45 11.0072 5
      vertex 14.4 10.5 5
    endloop
  endfacet
  facet normal -0.995185 0.0980171 0
    outer loop
      vertex 14.45 11.0072 2
      vertex 14.4 10.5 2
      vertex 14.4 10.5 5
    endloop
  endfacet
  facet normal -0.995185 0.0980171 0
    outer loop
      vertex 14.45 11.0072 2
      vertex 14.4 10.5 5
      vertex 14.45 11.0072 5
    endloop
  endfacet
  facet normal -0 0 -1
    outer loop
      vertex 17 10.5 2
      vertex 14.45 9.99277 2
      vertex 14.4 10.5 2
    endloop
  endfacet
  facet normal 0 0 1
    outer loop
      vertex 17 10.5 5
      vertex 14.4 10.5 5
      vertex 14.45 9.99277 5
    endloop
  endfacet
  facet normal -0.995185 -0.0980171 0
    outer loop
      vertex 14.4 10.5 2
      vertex 14.45 9.99277 2
      vertex 14.45 9.99277 5
    endloop
  endfacet
  facet normal -0.995185 -0.0980171 0
    outer loop
      vertex 14.4 10.5 2
      vertex 14.45 9.99277 5
      vertex 14.4 10.5 5
    endloop
  endfacet
  facet normal 0 0 -1
    outer loop
      vertex 17 10.5 2
      vertex 14.5979 9.50502 2
      vertex 14.45 9.99277 2
    endloop
  endfacet
  facet normal 0 0 1
    outer loop
      vertex 17 10.5 5
      vertex 14.45 9.99277 5
      vertex 14.5979 9.50502 5
    endloop
  endfacet
  facet normal -0.95694 -0.290285 0
    outer loop
      vertex 14.45 9.99277 2
      vertex 14.5979 9.50502 2
      vertex 14.5979 9.50502 5
    endloop
  endfacet
  facet normal -0.95694 -0.290285 0
    outer loop
      vertex 14.45 9.99277 2
      vertex 14.5979 9.50502 5
      vertex 14.45 9.99277 5
    endloop
  endfacet
  facet normal 0 0 -1
    outer loop
      vertex 17 10.5 2
      vertex 14.8382 9.05552 2
      vertex 14.5979 9.50502 2
    endloop
  endfacet
  facet normal 0 0 1
    outer loop
      vertex 17 10.5 5
      vertex 14.5979 9.50502 5
      vertex 14.8382 9.05552 5
    endloop
  endfacet
  facet normal -0.881921 -0.471397 0
    outer loop
      vertex 14.5979 9.50502 2
      vertex 14.8382 9.05552 2
      vertex 14.8382 9.05552 5
    endloop
  endfacet
  facet normal -0.881921 -0.471397 0
    outer loop
      vertex 14.5979 9.50502 2
      vertex 14.8382 9.05552 5
      vertex 14.5979 9.50502 5
    endloop
  endfacet
  facet normal 0 0 -1
    outer loop
      vertex 17 10.5 2
      vertex 15.1615 8.66152 2
      vertex 14.8382 9.05552 2
    endloop
  endfacet
  facet normal 0 0 1
    outer loop
      vertex 17 10.5 5
      vertex 14.8382 9.05552 5
      vertex 15.1615 8.66152 5
    endloop
  endfacet
  facet normal -0.77301 -0.634393 0
    outer loop
      vertex 14.8382 9.05552 2
      vertex 15.1615 8.66152 2
      vertex 15.1615 8.66152 5
    endloop
  endfacet
  facet normal -0.77301 -0.634393 0
    outer loop
      vertex 14.8382 9.05552 2
      vertex 15.1615 8.66152 5
      vertex 14.8382 9.05552 5
    endloop
  endfacet
  facet normal 0 0 -1
    outer loop
      vertex 17 10.5 2
      vertex 15.5555 8.33818 2
      vertex 15.1615 8.66152 2
    endloop
  endfacet
  facet normal 0 0 1
    outer loop
      vertex 17 10.5 5
      vertex 15.1615 8.66152 5
      vertex 15.5555 8.33818 5
    endloop
  endfacet
  facet normal -0.634393 -0.77301 0
    outer loop
      vertex 15.1615 8.66152 2
      vertex 15.5555 8.33818 2
      vertex 15.5555 8.33818 5
    endloop
  endfacet
  facet normal -0.634393 -0.77301 0
    outer loop
      vertex 15.1615 8.66152 2
      vertex 15.5555 8.33818 5
      vertex 15.1615 8.66152 5
    endloop
  endfacet
  facet normal 0 0 -1
    outer loop
      vertex 17 10.5 2
      vertex 16.005 8.09791 2
      vertex 15.5555 8.33818 2
    endloop
  endfacet
  facet normal 0 0 1
    outer loop
      vertex 17 10.5 5
      vertex 15.5555 8.33818 5
      vertex 16.005 8.09791 5
    endloop
  endfacet
  facet normal -0.471397 -0.881921 0
    outer loop
      vertex 15.5555 8.33818 2
      vertex 16.005 8.09791 2
      vertex 16.005 8.09791 5
    endloop
  endfacet
  facet normal -0.471397 -0.881921 0
    outer loop
      vertex 15.5555 8.33818 2
      vertex 16.005 8.09791 5
      vertex 15.5555 8.33818 5
    endloop
  endfacet
  facet normal 0 0 -1
    outer loop
      vertex 17 10.5 2
      vertex 16.4928 7.94996 2
      vertex 16.005 8.09791 2
    endloop
  endfacet
  facet normal 0 0 1
    outer loop
      vertex 17 10.5 5
      vertex 16.005 8.09791 5
      vertex 16.4928 7.94996 5
    endloop
  endfacet
  facet normal -0.290285 -0.95694 0
    outer loop
      vertex 16.005 8.09791 2
      vertex 16.4928 7.94996 2
      vertex 16.4928 7.94996 5
    endloop
  endfacet
  facet normal -0.290285 -0.95694 0
    outer loop
      vertex 16.005 8.09791 2
      vertex 16.4928 7.94996 5
      vertex 16.005 8.09791 5
    endloop
  endfacet
  facet normal 0 -0 -1
    outer loop
      vertex 17 10.5 2
      vertex 17 7.9 2
      vertex 16.4928 7.94996 2
    endloop
  endfacet
  facet normal 0 0 1
    outer loop
      vertex 17 10.5 5
      vertex 16.4928 7.94996 5
      vertex 17 7.9 5
    endloop
  endfacet
  facet normal -0.0980171 -0.995185 0
    outer loop
      vertex 16.4928 7.94996 2
      vertex 17 7.9 2
      vertex 17 7.9 5
    endloop
  endfacet
  facet normal -0.0980171 -0.995185 0
    outer loop
      vertex 16.4928 7.94996 2
      vertex 17 7.9 5
      vertex 16.4928 7.94996 5
    endloop
  endfacet
  facet normal 0 0 -1
    outer loop
      vertex 17 10.5 2
      vertex 17.5072 7.94996 2
      vertex 17 7.9 2
    endloop
  endfacet
  facet normal 0 0 1
    outer loop
      vertex 17 10.5 5
      vertex 17 7.9 5
      vertex 17.5072 7.94996 5
    endloop
  endfacet
  facet normal 0.0980171 -0.995185 0
    outer loop
      vertex 17 7.9 2
      vertex 17.5072 7.94996 2
      vertex 17.5072 7.94996 5
    endloop
  endfacet
  facet normal 0.0980171 -0.995185 0
    outer loop
      vertex 17 7.9 2
      vertex 17.5072 7.94996 5
      vertex 17 7.9 5
    endloop
  endfacet
  facet normal 0 0 -1
    outer loop
      vertex 17 10.5 2
      vertex 17.995 8.09791 2
      vertex 17.5072 7.94996 2
    endloop
  endfacet
  facet normal 0 0 1
    outer loop
      vertex 17 10.5 5
      vertex 17.5072 7.94996 5
      vertex 17.995 8.09791 5
    endloop
  endfacet
  facet normal 0.290285 -0.95694 0
    outer loop
      vertex 17.5072 7.94996 2
      vertex 17.995 8.09791 2
      vertex 17.995 8.09791 5
    endloop
  endfacet
  facet normal 0.290285 -0.95694 0
    outer loop
      vertex 17.5072 7.94996 2
      vertex 17.995 8.09791 5
      vertex 17.5072 7.94996 5
    endloop
  endfacet
  facet normal 0 0 -1
    outer loop
      vertex 17 10.5 2
      vertex 18.4445 8.33818 2
      vertex 17.995 8.09791 2
    endloop
  endfacet
  facet normal 0 0 1
    outer loop
      vertex 17 10.5 5
      vertex 17.995 8.09791 5
      vertex 18.4445 8.33818 5
    endloop
  endfacet
  facet normal 0.471397 -0.881921 0
    outer loop
      vertex 17.995 8.09791 2
      vertex 18.4445 8.33818 2
      vertex 18.4445 8.33818 5
    endloop
  endfacet
  facet normal 0.471397 -0.881921 0
    outer loop
      vertex 17.995 8.09791 2
      vertex 18.4445 8.33818 5
      vertex 17.995 8.09791 5
    endloop
  endfacet
  facet normal 0 0 -1
    outer loop
      vertex 17 10.5 2
      vertex 18.8385 8.66152 2
      vertex 18.4445 8.33818 2
    endloop
  endfacet
  facet normal 0 0 1
    outer loop
      vertex 17 10.5 5
      vertex 18.4445 8.33818 5
      vertex 18.8385 8.66152 5
    endloop
  endfacet
  facet normal 0.634393 -0.77301 0
    outer loop
      vertex 18.4445 8.33818 2
      vertex 18.8385 8.66152 2
      vertex 18.8385 8.66152 5
    endloop
  endfacet
  facet normal 0.634393 -0.77301 0
    outer loop
      vertex 18.4445 8.33818 2
      vertex 18.8385 8.66152 5
      vertex 18.4445 8.33818 5
    endloop
  endfacet
  facet normal 0 0 -1
    outer loop
      vertex 17 10.5 2
      vertex 19.1618 9.05552 2
      vertex 18.8385 8.66152 2
    endloop
  endfacet
  facet normal 0 0 1
    outer loop
      vertex 17 10.5 5
      vertex 18.8385 8.66152 5
      vertex 19.1618 9.05552 5
    endloop
  endfacet
  facet normal 0.77301 -0.634393 0
    outer loop
      vertex 18.8385 8.66152 2
      vertex 19.1618 9.05552 2
      vertex 19.1618 9.05552 5
    endloop
  endfacet
  facet normal 0.77301 -0.634393 0
    outer loop
      vertex 18.8385 8.66152 2
      vertex 19.1618 9.05552 5
      vertex 18.8385 8.66152 5
    endloop
  endfacet
  facet normal 0 0 -1
    outer loop
      vertex 17 10.5 2
      vertex 19.4021 9.50502 2
      vertex 19.1618 9.05552 2
    endloop
  endfacet
  facet normal 0 0 1
    outer loop
      vertex 17 10.5 5
      vertex 19.1618 9.05552 5
      vertex 19.4021 9.50502 5
    endloop
  endfacet
  facet normal 0.881921 -0.471397 0
    outer loop
      vertex 19.1618 9.05552 2
      vertex 19.4021 9.50502 2
      vertex 19.4021 9.50502 5
    endloop
  endfacet
  facet normal 0.881921 -0.471397 0
    outer loop
      vertex 19.1618 9.05552 2
      vertex 19.4021 9.50502 5
      vertex 19.1618 9.05552 5
    endloop
  endfacet
  facet normal 0 0 -1
    outer loop
      vertex 17 10.5 2
      vertex 19.55 9.99277 2
      vertex 19.4021 9.50502 2
    endloop
  endfacet
  facet normal 0 0 1
    outer loop
      vertex 17 10.5 5
      vertex 19.4021 9.50502 5
      vertex 19.55 9.99277 5
    endloop
  endfacet
  facet normal 0.95694 -0.290285 0
    outer loop
      vertex 19.4021 9.50502 2
      vertex 19.55 9.99277 2
      vertex 19.55 9.99277 5
    endloop
  endfacet
  facet normal 0.95694 -0.290285 0
    outer loop
      vertex 19.4021 9.50502 2
      vertex 19.55 9.99277 5
      vertex 19.4021 9.50502 5
    endloop
  endfacet
  facet normal 0 0 -1
    outer loop
      vertex 17 10.5 2
      vertex 19.6 10.5 2
      vertex 19.55 9.99277 2
    endloop
  endfacet
  facet normal -0 0 1
    outer loop
      vertex 17 10.5 5
      vertex 19.55 9.99277 5
      vertex 19.6 10.5 5
    endloop
  endfacet
  facet normal 0.995185 -0.0980171 0
    outer loop
      vertex 19.55 9.99277 2
      vertex 19.6 10.5 2
      vertex 19.6 10.5 5
    endloop
  endfacet
  facet normal 0.995185 -0.0980171 0
    outer loop
      vertex 19.55 9.99277 2
      vertex 19.6 10.5 5
      vertex 19.55 9.99277 5
    endloop
  endfacet
  facet normal 0 0 -1
    outer loop
      vertex 17 31.5 2
      vertex 19.55 32.0072 2
      vertex 19.6 31.5 2
    endloop
  endfacet
  facet normal 0 0 1
    outer loop
      vertex 17 31.5 5
      vertex 19.6 31.5 5
      vertex 19.55 32.0072 5
    endloop
  endfacet
  facet normal 0.995185 0.0980171 0
    outer loop
      vertex 19.6 31.5 2
      vertex 19.55 32.0072 2
      vertex 19.55 32.0072 5
    endloop
  endfacet
  facet normal 0.995185 0.0980171 -0
    outer loop
      vertex 19.6 31.5 2
      vertex 19.55 32.0072 5
      vertex 19.6 31.5 5
    endloop
  endfacet
  facet normal 0 0 -1
    outer loop
      vertex 17 31.5 2
      vertex 19.4021 32.495 2
      vertex 19.55 32.0072 2
    endloop
  endfacet
  facet normal 0 0 1
    outer loop
      vertex 17 31.5 5
      vertex 19.55 32.0072 5
      vertex 19.4021 32.495 5
    endloop
  endfacet
  facet normal 0.95694 0.290285 0
    outer loop
      vertex 19.55 32.0072 2
      vertex 19.4021 32.495 2
      vertex 19.4021 32.495 5
    endloop
  endfacet
  facet normal 0.95694 0.290285 -0
    outer loop
      vertex 19.55 32.0072 2
      vertex 19.4021 32.495 5
      vertex 19.55 32.0072 5
    endloop
  endfacet
  facet normal 0 0 -1
    outer loop
      vertex 17 31.5 2
      vertex 19.1618 32.9445 2
      vertex 19.4021 32.495 2
    endloop
  endfacet
  facet normal 0 0 1
    outer loop
      vertex 17 31.5 5
      vertex 19.4021 32.495 5
      vertex 19.1618 32.9445 5
    endloop
  endfacet
  facet normal 0.881921 0.471397 0
    outer loop
      vertex 19.4021 32.495 2
      vertex 19.1618 32.9445 2
      vertex 19.1618 32.9445 5
    endloop
  endfacet
  facet normal 0.881921 0.471397 -0
    outer loop
      vertex 19.4021 32.495 2
      vertex 19.1618 32.9445 5
      vertex 19.4021 32.495 5
    endloop
  endfacet
  facet normal 0 0 -1
    outer loop
      vertex 17 31.5 2
      vertex 18.8385 33.3385 2
      vertex 19.1618 32.9445 2
    endloop
  endfacet
  facet normal 0 0 1
    outer loop
      vertex 17 31.5 5
      vertex 19.1618 32.9445 5
      vertex 18.8385 33.3385 5
    endloop
  endfacet
  facet normal 0.77301 0.634393 0
    outer loop
      vertex 19.1618 32.9445 2
      vertex 18.8385 33.3385 2
      vertex 18.8385 33.3385 5
    endloop
  endfacet
  facet normal 0.77301 0.634393 -0
    outer loop
      vertex 19.1618 32.9445 2
      vertex 18.8385 33.3385 5
      vertex 19.1618 32.9445 5
    endloop
  endfacet
  facet normal 0 0 -1
    outer loop
      vertex 17 31.5 2
      vertex 18.4445 33.6618 2
      vertex 18.8385 33.3385 2
    endloop
  endfacet
  facet normal 0 0 1
    outer loop
      vertex 17 31.5 5
      vertex 18.8385 33.3385 5
      vertex 18.4445 33.6618 5
    endloop
  endfacet
  facet normal 0.634393 0.77301 0
    outer loop
      vertex 18.8385 33.3385 2
      vertex 18.4445 33.6618 2
      vertex 18.4445 33.6618 5
    endloop
  endfacet
  facet normal 0.634393 0.77301 -0
    outer loop
      vertex 18.8385 33.3385 2
      vertex 18.4445 33.6618 5
      vertex 18.8385 33.3385 5
    endloop
  endfacet
  facet normal 0 0 -1
    outer loop
      vertex 17 31.5 2
      vertex 17.995 33.9021 2
      vertex 18.4445 33.6618 2
    endloop
  endfacet
  facet normal 0 0 1
    outer loop
      vertex 17 31.5 5
      vertex 18.4445 33.6618 5
      vertex 17.995 33.9021 5
    endloop
  endfacet
  facet normal 0.471397 0.881921 0
    outer loop
      vertex 18.4445 33.6618 2
      vertex 17.995 33.9021 2
      vertex 17.995 33.9021 5
    endloop
  endfacet
  facet normal 0.471397 0.881921 -0
    outer loop
      vertex 18.4445 33.6618 2
      vertex 17.995 33.9021 5
      vertex 18.4445 33.6618 5
    endloop
  endfacet
  facet normal 0 0 -1
    outer loop
      vertex 17 31.5 2
      vertex 17.5072 34.05 2
      vertex 17.995 33.9021 2
    endloop
  endfacet
  facet normal 0 0 1
    outer loop
      vertex 17 31.5 5
      vertex 17.995 33.9021 5
      vertex 17.5072 34.05 5
    endloop
  endfacet
  facet normal 0.290285 0.95694 0
    outer loop
      vertex 17.995 33.9021 2
      vertex 17.5072 34.05 2
      vertex 17.5072 34.05 5
    endloop
  endfacet
  facet normal 0.290285 0.95694 -0
    outer loop
      vertex 17.995 33.9021 2
      vertex 17.5072 34.05 5
      vertex 17.995 33.9021 5
    endloop
  endfacet
  facet normal 0 0 -1
    outer loop
      vertex 17 31.5 2
      vertex 17 34.1 2
      vertex 17.5072 34.05 2
    endloop
  endfacet
  facet normal 0 0 1
    outer loop
      vertex 17 31.5 5
      vertex 17.5072 34.05 5
      vertex 17 34.1 5
    endloop
  endfacet
  facet normal 0.0980171 0.995185 0
    outer loop
      vertex 17.5072 34.05 2
      vertex 17 34.1 2
      vertex 17 34.1 5
    endloop
  endfacet
  facet normal 0.0980171 0.995185 -0
    outer loop
      vertex 17.5072 34.05 2
      vertex 17 34.1 5
      vertex 17.5072 34.05 5
    endloop
  endfacet
  facet normal 0 0 -1
    outer loop
      vertex 17 31.5 2
      vertex 16.4928 34.05 2
      vertex 17 34.1 2
    endloop
  endfacet
  facet normal 0 -0 1
    outer loop
      vertex 17 31.5 5
      vertex 17 34.1 5
      vertex 16.4928 34.05 5
    endloop
  endfacet
  facet normal -0.0980171 0.995185 0
    outer loop
      vertex 17 34.1 2
      vertex 16.4928 34.05 2
      vertex 16.4928 34.05 5
    endloop
  endfacet
  facet normal -0.0980171 0.995185 0
    outer loop
      vertex 17 34.1 2
      vertex 16.4928 34.05 5
      vertex 17 34.1 5
    endloop
  endfacet
  facet normal 0 0 -1
    outer loop
      vertex 17 31.5 2
      vertex 16.005 33.9021 2
      vertex 16.4928 34.05 2
    endloop
  endfacet
  facet normal 0 0 1
    outer loop
      vertex 17 31.5 5
      vertex 16.4928 34.05 5
      vertex 16.005 33.9021 5
    endloop
  endfacet
  facet normal -0.290285 0.95694 0
    outer loop
      vertex 16.4928 34.05 2
      vertex 16.005 33.9021 2
      vertex 16.005 33.9021 5
    endloop
  endfacet
  facet normal -0.290285 0.95694 0
    outer loop
      vertex 16.4928 34.05 2
      vertex 16.005 33.9021 5
      vertex 16.4928 34.05 5
    endloop
  endfacet
  facet normal 0 0 -1
    outer loop
      vertex 17 31.5 2
      vertex 15.5555 33.6618 2
      vertex 16.005 33.9021 2
    endloop
  endfacet
  facet normal 0 0 1
    outer loop
      vertex 17 31.5 5
      vertex 16.005 33.9021 5
      vertex 15.5555 33.6618 5
    endloop
  endfacet
  facet normal -0.471397 0.881921 0
    outer loop
      vertex 16.005 33.9021 2
      vertex 15.5555 33.6618 2
      vertex 15.5555 33.6618 5
    endloop
  endfacet
  facet normal -0.471397 0.881921 0
    outer loop
      vertex 16.005 33.9021 2
      vertex 15.5555 33.6618 5
      vertex 16.005 33.9021 5
    endloop
  endfacet
  facet normal 0 0 -1
    outer loop
      vertex 17 31.5 2
      vertex 15.1615 33.3385 2
      vertex 15.5555 33.6618 2
    endloop
  endfacet
  facet normal 0 0 1
    outer loop
      vertex 17 31.5 5
      vertex 15.5555 33.6618 5
      vertex 15.1615 33.3385 5
    endloop
  endfacet
  facet normal -0.634393 0.77301 0
    outer loop
      vertex 15.5555 33.6618 2
      vertex 15.1615 33.3385 2
      vertex 15.1615 33.3385 5
    endloop
  endfacet
  facet normal -0.634393 0.77301 0
    outer loop
      vertex 15.5555 33.6618 2
      vertex 15.1615 33.3385 5
      vertex 15.5555 33.6618 5
    endloop
  endfacet
  facet normal 0 0 -1
    outer loop
      vertex 17 31.5 2
      vertex 14.8382 32.9445 2
      vertex 15.1615 33.3385 2
    endloop
  endfacet
  facet normal 0 0 1
    outer loop
      vertex 17 31.5 5
      vertex 15.1615 33.3385 5
      vertex 14.8382 32.9445 5
    endloop
  endfacet
  facet normal -0.77301 0.634393 0
    outer loop
      vertex 15.1615 33.3385 2
      vertex 14.8382 32.9445 2
      vertex 14.8382 32.9445 5
    endloop
  endfacet
  facet normal -0.77301 0.634393 0
    outer loop
      vertex 15.1615 33.3385 2
      vertex 14.8382 32.9445 5
      vertex 15.1615 33.3385 5
    endloop
  endfacet
  facet normal 0 0 -1
    outer loop
      vertex 17 31.5 2
      vertex 14.5979 32.495 2
      vertex 14.8382 32.9445 2
    endloop
  endfacet
  facet normal 0 0 1
    outer loop
      vertex 17 31.5 5
      vertex 14.8382 32.9445 5
      vertex 14.5979 32.495 5
    endloop
  endfacet
  facet normal -0.881921 0.471397 0
    outer loop
      vertex 14.8382 32.9445 2
      vertex 14.5979 32.495 2
      vertex 14.5979 32.495 5
    endloop
  endfacet
  facet normal -0.881921 0.471397 0
    outer loop
      vertex 14.8382 32.9445 2
      vertex 14.5979 32.495 5
      vertex 14.8382 32.9445 5
    endloop
  endfacet
  facet normal 0 0 -1
    outer loop
      vertex 17 31.5 2
      vertex 14.45 32.0072 2
      vertex 14.5979 32.495 2
    endloop
  endfacet
  facet normal 0 0 1
    outer loop
      vertex 17 31.5 5
      vertex 14.5979 32.495 5
      vertex 14.45 32.0072 5
    endloop
  endfacet
  facet normal -0.95694 0.290285 0
    outer loop
      vertex 14.5979 32.495 2
      vertex 14.45 32.0072 2
      vertex 14.45 32.0072 5
    endloop
  endfacet
  facet normal -0.95694 0.290285 0
    outer loop
      vertex 14.5979 32.495 2
      vertex 14.45 32.0072 5
      vertex 14.5979 32.495 5
    endloop
  endfacet
  facet normal 0 0 -1
    outer loop
      vertex 17 31.5 2
      vertex 14.4 31.5 2
      vertex 14.45 32.0072 2
    endloop
  endfacet
  facet normal 0 0 1
    outer loop
      vertex 17 31.5 5
      vertex 14.45 32.0072 5
      vertex 14.4 31.5 5
    endloop
  endfacet
  facet normal -0.995185 0.0980171 0
    outer loop
      vertex 14.45 32.0072 2
      vertex 14.4 31.5 2
      vertex 14.4 31.5 5
    endloop
  endfacet
  facet normal -0.995185 0.0980171 0
    outer loop
      vertex 14.45 32.0072 2
      vertex 14.4 31.5 5
      vertex 14.45 32.0072 5
    endloop
  endfacet
  facet normal -0 0 -1
    outer loop
      vertex 17 31.5 2
      vertex 14.45 30.9928 2
      vertex 14.4 31.5 2
    endloop
  endfacet
  facet normal 0 0 1
    outer loop
      vertex 17 31.5 5
      vertex 14.4 31.5 5
      vertex 14.45 30.9928 5
    endloop
  endfacet
  facet normal -0.995185 -0.0980171 0
    outer loop
      vertex 14.4 31.5 2
      vertex 14.45 30.9928 2
      vertex 14.45 30.9928 5
    endloop
  endfacet
  facet normal -0.995185 -0.0980171 0
    outer loop
      vertex 14.4 31.5 2
      vertex 14.45 30.9928 5
      vertex 14.4 31.5 5
    endloop
  endfacet
  facet normal 0 0 -1
    outer loop
      vertex 17 31.5 2
      vertex 14.5979 30.505 2
      vertex 14.45 30.9928 2
    endloop
  endfacet
  facet normal 0 0 1
    outer loop
      vertex 17 31.5 5
      vertex 14.45 30.9928 5
      vertex 14.5979 30.505 5
    endloop
  endfacet
  facet normal -0.95694 -0.290285 0
    outer loop
      vertex 14.45 30.9928 2
      vertex 14.5979 30.505 2
      vertex 14.5979 30.505 5
    endloop
  endfacet
  facet normal -0.95694 -0.290285 0
    outer loop
      vertex 14.45 30.9928 2
      vertex 14.5979 30.505 5
      vertex 14.45 30.9928 5
    endloop
  endfacet
  facet normal 0 0 -1
    outer loop
      vertex 17 31.5 2
      vertex 14.8382 30.0555 2
      vertex 14.5979 30.505 2
    endloop
  endfacet
  facet normal 0 0 1
    outer loop
      vertex 17 31.5 5
      vertex 14.5979 30.505 5
      vertex 14.8382 30.0555 5
    endloop
  endfacet
  facet normal -0.881921 -0.471397 0
    outer loop
      vertex 14.5979 30.505 2
      vertex 14.8382 30.0555 2
      vertex 14.8382 30.0555 5
    endloop
  endfacet
  facet normal -0.881921 -0.471397 0
    outer loop
      vertex 14.5979 30.505 2
      vertex 14.8382 30.0555 5
      vertex 14.5979 30.505 5
    endloop
  endfacet
  facet normal 0 0 -1
    outer loop
      vertex 17 31.5 2
      vertex 15.1615 29.6615 2
      vertex 14.8382 30.0555 2
    endloop
  endfacet
  facet normal 0 0 1
    outer loop
      vertex 17 31.5 5
      vertex 14.8382 30.0555 5
      vertex 15.1615 29.6615 5
    endloop
  endfacet
  facet normal -0.77301 -0.634393 0
    outer loop
      vertex 14.8382 30.0555 2
      vertex 15.1615 29.6615 2
      vertex 15.1615 29.6615 5
    endloop
  endfacet
  facet normal -0.77301 -0.634393 0
    outer loop
      vertex 14.8382 30.0555 2
      vertex 15.1615 29.6615 5
      vertex 14.8382 30.0555 5
    endloop
  endfacet
  facet normal 0 0 -1
    outer loop
      vertex 17 31.5 2
      vertex 15.5555 29.3382 2
      vertex 15.1615 29.6615 2
    endloop
  endfacet
  facet normal 0 0 1
    outer loop
      vertex 17 31.5 5
      vertex 15.1615 29.6615 5
      vertex 15.5555 29.3382 5
    endloop
  endfacet
  facet normal -0.634393 -0.77301 0
    outer loop
      vertex 15.1615 29.6615 2
      vertex 15.5555 29.3382 2
      vertex 15.5555 29.3382 5
    endloop
  endfacet
  facet normal -0.634393 -0.77301 0
    outer loop
      vertex 15.1615 29.6615 2
      vertex 15.5555 29.3382 5
      vertex 15.1615 29.6615 5
    endloop
  endfacet
  facet normal 0 0 -1
    outer loop
      vertex 17 31.5 2
      vertex 16.005 29.0979 2
      vertex 15.5555 29.3382 2
    endloop
  endfacet
  facet normal 0 0 1
    outer loop
      vertex 17 31.5 5
      vertex 15.5555 29.3382 5
      vertex 16.005 29.0979 5
    endloop
  endfacet
  facet normal -0.471397 -0.881921 0
    outer loop
      vertex 15.5555 29.3382 2
      vertex 16.005 29.0979 2
      vertex 16.005 29.0979 5
    endloop
  endfacet
  facet normal -0.471397 -0.881921 0
    outer loop
      vertex 15.5555 29.3382 2
      vertex 16.005 29.0979 5
      vertex 15.5555 29.3382 5
    endloop
  endfacet
  facet normal 0 0 -1
    outer loop
      vertex 17 31.5 2
      vertex 16.4928 28.95 2
      vertex 16.005 29.0979 2
    endloop
  endfacet
  facet normal 0 0 1
    outer loop
      vertex 17 31.5 5
      vertex 16.005 29.0979 5
      vertex 16.4928 28.95 5
    endloop
  endfacet
  facet normal -0.290285 -0.95694 0
    outer loop
      vertex 16.005 29.0979 2
      vertex 16.4928 28.95 2
      vertex 16.4928 28.95 5
    endloop
  endfacet
  facet normal -0.290285 -0.95694 0
    outer loop
      vertex 16.005 29.0979 2
      vertex 16.4928 28.95 5
      vertex 16.005 29.0979 5
    endloop
  endfacet
  facet normal 0 -0 -1
    outer loop
      vertex 17 31.5 2
      vertex 17 28.9 2
      vertex 16.4928 28.95 2
    endloop
  endfacet
  facet normal 0 0 1
    outer loop
      vertex 17 31.5 5
      vertex 16.4928 28.95 5
      vertex 17 28.9 5
    endloop
  endfacet
  facet normal -0.0980171 -0.995185 0
    outer loop
      vertex 16.4928 28.95 2
      vertex 17 28.9 2
      vertex 17 28.9 5
    endloop
  endfacet
  facet normal -0.0980171 -0.995185 0
    outer loop
      vertex 16.4928 28.95 2
      vertex 17 28.9 5
      vertex 16.4928 28.95 5
    endloop
  endfacet
  facet normal 0 0 -1
    outer loop
      vertex 17 31.5 2
      vertex 17.5072 28.95 2
      vertex 17 28.9 2
    endloop
  endfacet
  facet normal 0 0 1
    outer loop
      vertex 17 31.5 5
      vertex 17 28.9 5
      vertex 17.5072 28.95 5
    endloop
  endfacet
  facet normal 0.0980171 -0.995185 0
    outer loop
      vertex 17 28.9 2
      vertex 17.5072 28.95 2
      vertex 17.5072 28.95 5
    endloop
  endfacet
  facet normal 0.0980171 -0.995185 0
    outer loop
      vertex 17 28.9 2
      vertex 17.5072 28.95 5
      vertex 17 28.9 5
    endloop
  endfacet
  facet normal 0 0 -1
    outer loop
      vertex 17 31.5 2
      vertex 17.995 29.0979 2
      vertex 17.5072 28.95 2
    endloop
  endfacet
  facet normal 0 0 1
    outer loop
      vertex 17 31.5 5
      vertex 17.5072 28.95 5
      vertex 17.995 29.0979 5
    endloop
  endfacet
  facet normal 0.290285 -0.95694 0
    outer loop
      vertex 17.5072 28.95 2
      vertex 17.995 29.0979 2
      vertex 17.995 29.0979 5
    endloop
  endfacet
  facet normal 0.290285 -0.95694 0
    outer loop
      vertex 17.5072 28.95 2
      vertex 17.995 29.0979 5
      vertex 17.5072 28.95 5
    endloop
  endfacet
  facet normal 0 0 -1
    outer loop
      vertex 17 31.5 2
      vertex 18.4445 29.3382 2
      vertex 17.995 29.0979 2
    endloop
  endfacet
  facet normal 0 0 1
    outer loop
      vertex 17 31.5 5
      vertex 17.995 29.0979 5
      vertex 18.4445 29.3382 5
    endloop
  endfacet
  facet normal 0.471397 -0.881921 0
    outer loop
      vertex 17.995 29.0979 2
      vertex 18.4445 29.3382 2
      vertex 18.4445 29.3382 5
    endloop
  endfacet
  facet normal 0.471397 -0.881921 0
    outer loop
      vertex 17.995 29.0979 2
      vertex 18.4445 29.3382 5
      vertex 17.995 29.0979 5
    endloop
  endfacet
  facet normal 0 0 -1
    outer loop
      vertex 17 31.5 2
      vertex 18.8385 29.6615 2
      vertex 18.4445 29.3382 2
    endloop
  endfacet
  facet normal 0 0 1
    outer loop
      vertex 17 31.5 5
      vertex 18.4445 29.3382 5
      vertex 18.8385 29.6615 5
    endloop
  endfacet
  facet normal 0.634393 -0.77301 0
    outer loop
      vertex 18.4445 29.3382 2
      vertex 18.8385 29.6615 2
      vertex 18.8385 29.6615 5
    endloop
  endfacet
  facet normal 0.634393 -0.77301 0
    outer loop
      vertex 18.4445 29.3382 2
      vertex 18.8385 29.6615 5
      vertex 18.4445 29.3382 5
    endloop
  endfacet
  facet normal 0 0 -1
    outer loop
      vertex 17 31.5 2
      vertex 19.1618 30.0555 2
      vertex 18.8385 29.6615 2
    endloop
  endfacet
  facet normal 0 0 1
    outer loop
      vertex 17 31.5 5
      vertex 18.8385 29.6615 5
      vertex 19.1618 30.0555 5
    endloop
  endfacet
  facet normal 0.77301 -0.634393 0
    outer loop
      vertex 18.8385 29.6615 2
      vertex 19.1618 30.0555 2
      vertex 19.1618 30.0555 5
    endloop
  endfacet
  facet normal 0.77301 -0.634393 0
    outer loop
      vertex 18.8385 29.6615 2
      vertex 19.1618 30.0555 5
      vertex 18.8385 29.6615 5
    endloop
  endfacet
  facet normal 0 0 -1
    outer loop
      vertex 17 31.5 2
      vertex 19.4021 30.505 2
      vertex 19.1618 30.0555 2
    endloop
  endfacet
  facet normal 0 0 1
    outer loop
      vertex 17 31.5 5
      vertex 19.1618 30.0555 5
      vertex 19.4021 30.505 5
    endloop
  endfacet
  facet normal 0.881921 -0.471397 0
    outer loop
      vertex 19.1618 30.0555 2
      vertex 19.4021 30.505 2
      vertex 19.4021 30.505 5
    endloop
  endfacet
  facet normal 0.881921 -0.471397 0
    outer loop
      vertex 19.1618 30.0555 2
      vertex 19.4021 30.505 5
      vertex 19.1618 30.0555 5
    endloop
  endfacet
  facet normal 0 0 -1
    outer loop
      vertex 17 31.5 2
      vertex 19.55 30.9928 2
      vertex 19.4021 30.505 2
    endloop
  endfacet
  facet normal 0 0 1
    outer loop
      vertex 17 31.5 5
      vertex 19.4021 30.505 5
      vertex 19.55 30.9928 5
    endloop
  endfacet
  facet normal 0.95694 -0.290285 0
    outer loop
      vertex 19.4021 30.505 2
      vertex 19.55 30.9928 2
      vertex 19.55 30.9928 5
    endloop
  endfacet
  facet normal 0.95694 -0.290285 0
    outer loop
      vertex 19.4021 30.505 2
      vertex 19.55 30.9928 5
      vertex 19.4021 30.505 5
    endloop
  endfacet
  facet normal 0 0 -1
    outer loop
      vertex 17 31.5 2
      vertex 19.6 31.5 2
      vertex 19.55 30.9928 2
    endloop
  endfacet
  facet normal -0 0 1
    outer loop
      vertex 17 31.5 5
      vertex 19.55 30.9928 5
      vertex 19.6 31.5 5
    endloop
  endfacet
  facet normal 0.995185 -0.0980171 0
    outer loop
      vertex 19.55 30.9928 2
      vertex 19.6 31.5 2
      vertex 19.6 31.5 5
    endloop
  endfacet
  facet normal 0.995185 -0.0980171 0
    outer loop
      vertex 19.55 30.9928 2
      vertex 19.6 31.5 5
      vertex 19.55 30.9928 5
    endloop
  endfacet
  facet normal 0 0 -1
    outer loop
      vertex 61 10.5 2
      vertex 63.55 11.0072 2
      vertex 63.6 10.5 2
    endloop
  endfacet
  facet normal 0 0 1
    outer loop
      vertex 61 10.5 5
      vertex 63.6 10.5 5
      vertex 63.55 11.0072 5
    endloop
  endfacet
  facet normal 0.995185 0.0980171 0
    outer loop
      vertex 63.6 10.5 2
      vertex 63.55 11.0072 2
      vertex 63.55 11.0072 5
    endloop
  endfacet
  facet normal 0.995185 0.0980171 -0
    outer loop
      vertex 63.6 10.5 2
      vertex 63.55 11.0072 5
      vertex 63.6 10.5 5
    endloop
  endfacet
  facet normal 0 0 -1
    outer loop
      vertex 61 10.5 2
      vertex 63.4021 11.495 2
      vertex 63.55 11.0072 2
    endloop
  endfacet
  facet normal 0 0 1
    outer loop
      vertex 61 10.5 5
      vertex 63.55 11.0072 5
      vertex 63.4021 11.495 5
    endloop
  endfacet
  facet normal 0.95694 0.290285 0
    outer loop
      vertex 63.55 11.0072 2
      vertex 63.4021 11.495 2
      vertex 63.4021 11.495 5
    endloop
  endfacet
  facet normal 0.95694 0.290285 -0
    outer loop
      vertex 63.55 11.0072 2
      vertex 63.4021 11.495 5
      vertex 63.55 11.0072 5
    endloop
  endfacet
  facet normal 0 0 -1
    outer loop
      vertex 61 10.5 2
      vertex 63.1618 11.9445 2
      vertex 63.4021 11.495 2
    endloop
  endfacet
  facet normal 0 0 1
    outer loop
      vertex 61 10.5 5
      vertex 63.4021 11.495 5
      vertex 63.1618 11.9445 5
    endloop
  endfacet
  facet normal 0.881921 0.471397 0
    outer loop
      vertex 63.4021 11.495 2
      vertex 63.1618 11.9445 2
      vertex 63.1618 11.9445 5
    endloop
  endfacet
  facet normal 0.881921 0.471397 -0
    outer loop
      vertex 63.4021 11.495 2
      vertex 63.1618 11.9445 5
      vertex 63.4021 11.495 5
    endloop
  endfacet
  facet normal 0 0 -1
    outer loop
      vertex 61 10.5 2
      vertex 62.8385 12.3385 2
      vertex 63.1618 11.9445 2
    endloop
  endfacet
  facet normal 0 0 1
    outer loop
      vertex 61 10.5 5
      vertex 63.1618 11.9445 5
      vertex 62.8385 12.3385 5
    endloop
  endfacet
  facet normal 0.77301 0.634393 0
    outer loop
      vertex 63.1618 11.9445 2
      vertex 62.8385 12.3385 2
      vertex 62.8385 12.3385 5
    endloop
  endfacet
  facet normal 0.77301 0.634393 -0
    outer loop
      vertex 63.1618 11.9445 2
      vertex 62.8385 12.3385 5
      vertex 63.1618 11.9445 5
    endloop
  endfacet
  facet normal 0 0 -1
    outer loop
      vertex 61 10.5 2
      vertex 62.4445 12.6618 2
      vertex 62.8385 12.3385 2
    endloop
  endfacet
  facet normal 0 0 1
    outer loop
      vertex 61 10.5 5
      vertex 62.8385 12.3385 5
      vertex 62.4445 12.6618 5
    endloop
  endfacet
  facet normal 0.634393 0.77301 0
    outer loop
      vertex 62.8385 12.3385 2
      vertex 62.4445 12.6618 2
      vertex 62.4445 12.6618 5
    endloop
  endfacet
  facet normal 0.634393 0.77301 -0
    outer loop
      vertex 62.8385 12.3385 2
      vertex 62.4445 12.6618 5
      vertex 62.8385 12.3385 5
    endloop
  endfacet
  facet normal 0 0 -1
    outer loop
      vertex 61 10.5 2
      vertex 61.995 12.9021 2
      vertex 62.4445 12.6618 2
    endloop
  endfacet
  facet normal 0 0 1
    outer loop
      vertex 61 10.5 5
      vertex 62.4445 12.6618 5
      vertex 61.995 12.9021 5
    endloop
  endfacet
  facet normal 0.471397 0.881921 0
    outer loop
      vertex 62.4445 12.6618 2
      vertex 61.995 12.9021 2
      vertex 61.995 12.9021 5
    endloop
  endfacet
  facet normal 0.471397 0.881921 -0
    outer loop
      vertex 62.4445 12.6618 2
      vertex 61.995 12.9021 5
      vertex 62.4445 12.6618 5
    endloop
  endfacet
  facet normal 0 0 -1
    outer loop
      vertex 61 10.5 2
      vertex 61.5072 13.05 2
      vertex 61.995 12.9021 2
    endloop
  endfacet
  facet normal 0 0 1
    outer loop
      vertex 61 10.5 5
      vertex 61.995 12.9021 5
      vertex 61.5072 13.05 5
    endloop
  endfacet
  facet normal 0.290285 0.95694 0
    outer loop
      vertex 61.995 12.9021 2
      vertex 61.5072 13.05 2
      vertex 61.5072 13.05 5
    endloop
  endfacet
  facet normal 0.290285 0.95694 -0
    outer loop
      vertex 61.995 12.9021 2
      vertex 61.5072 13.05 5
      vertex 61.995 12.9021 5
    endloop
  endfacet
  facet normal 0 0 -1
    outer loop
      vertex 61 10.5 2
      vertex 61 13.1 2
      vertex 61.5072 13.05 2
    endloop
  endfacet
  facet normal 0 0 1
    outer loop
      vertex 61 10.5 5
      vertex 61.5072 13.05 5
      vertex 61 13.1 5
    endloop
  endfacet
  facet normal 0.0980171 0.995185 0
    outer loop
      vertex 61.5072 13.05 2
      vertex 61 13.1 2
      vertex 61 13.1 5
    endloop
  endfacet
  facet normal 0.0980171 0.995185 -0
    outer loop
      vertex 61.5072 13.05 2
      vertex 61 13.1 5
      vertex 61.5072 13.05 5
    endloop
  endfacet
  facet normal 0 0 -1
    outer loop
      vertex 61 10.5 2
      vertex 60.4928 13.05 2
      vertex 61 13.1 2
    endloop
  endfacet
  facet normal 0 -0 1
    outer loop
      vertex 61 10.5 5
      vertex 61 13.1 5
      vertex 60.4928 13.05 5
    endloop
  endfacet
  facet normal -0.0980171 0.995185 0
    outer loop
      vertex 61 13.1 2
      vertex 60.4928 13.05 2
      vertex 60.4928 13.05 5
    endloop
  endfacet
  facet normal -0.0980171 0.995185 0
    outer loop
      vertex 61 13.1 2
      vertex 60.4928 13.05 5
      vertex 61 13.1 5
    endloop
  endfacet
  facet normal 0 0 -1
    outer loop
      vertex 61 10.5 2
      vertex 60.005 12.9021 2
      vertex 60.4928 13.05 2
    endloop
  endfacet
  facet normal 0 0 1
    outer loop
      vertex 61 10.5 5
      vertex 60.4928 13.05 5
      vertex 60.005 12.9021 5
    endloop
  endfacet
  facet normal -0.290285 0.95694 0
    outer loop
      vertex 60.4928 13.05 2
      vertex 60.005 12.9021 2
      vertex 60.005 12.9021 5
    endloop
  endfacet
  facet normal -0.290285 0.95694 0
    outer loop
      vertex 60.4928 13.05 2
      vertex 60.005 12.9021 5
      vertex 60.4928 13.05 5
    endloop
  endfacet
  facet normal 0 0 -1
    outer loop
      vertex 61 10.5 2
      vertex 59.5555 12.6618 2
      vertex 60.005 12.9021 2
    endloop
  endfacet
  facet normal 0 0 1
    outer loop
      vertex 61 10.5 5
      vertex 60.005 12.9021 5
      vertex 59.5555 12.6618 5
    endloop
  endfacet
  facet normal -0.471397 0.881921 0
    outer loop
      vertex 60.005 12.9021 2
      vertex 59.5555 12.6618 2
      vertex 59.5555 12.6618 5
    endloop
  endfacet
  facet normal -0.471397 0.881921 0
    outer loop
      vertex 60.005 12.9021 2
      vertex 59.5555 12.6618 5
      vertex 60.005 12.9021 5
    endloop
  endfacet
  facet normal 0 0 -1
    outer loop
      vertex 61 10.5 2
      vertex 59.1615 12.3385 2
      vertex 59.5555 12.6618 2
    endloop
  endfacet
  facet normal 0 0 1
    outer loop
      vertex 61 10.5 5
      vertex 59.5555 12.6618 5
      vertex 59.1615 12.3385 5
    endloop
  endfacet
  facet normal -0.634393 0.77301 0
    outer loop
      vertex 59.5555 12.6618 2
      vertex 59.1615 12.3385 2
      vertex 59.1615 12.3385 5
    endloop
  endfacet
  facet normal -0.634393 0.77301 0
    outer loop
      vertex 59.5555 12.6618 2
      vertex 59.1615 12.3385 5
      vertex 59.5555 12.6618 5
    endloop
  endfacet
  facet normal 0 0 -1
    outer loop
      vertex 61 10.5 2
      vertex 58.8382 11.9445 2
      vertex 59.1615 12.3385 2
    endloop
  endfacet
  facet normal 0 0 1
    outer loop
      vertex 61 10.5 5
      vertex 59.1615 12.3385 5
      vertex 58.8382 11.9445 5
    endloop
  endfacet
  facet normal -0.77301 0.634393 0
    outer loop
      vertex 59.1615 12.3385 2
      vertex 58.8382 11.9445 2
      vertex 58.8382 11.9445 5
    endloop
  endfacet
  facet normal -0.77301 0.634393 0
    outer loop
      vertex 59.1615 12.3385 2
      vertex 58.8382 11.9445 5
      vertex 59.1615 12.3385 5
    endloop
  endfacet
  facet normal 0 0 -1
    outer loop
      vertex 61 10.5 2
      vertex 58.5979 11.495 2
      vertex 58.8382 11.9445 2
    endloop
  endfacet
  facet normal 0 0 1
    outer loop
      vertex 61 10.5 5
      vertex 58.8382 11.9445 5
      vertex 58.5979 11.495 5
    endloop
  endfacet
  facet normal -0.881921 0.471397 0
    outer loop
      vertex 58.8382 11.9445 2
      vertex 58.5979 11.495 2
      vertex 58.5979 11.495 5
    endloop
  endfacet
  facet normal -0.881921 0.471397 0
    outer loop
      vertex 58.8382 11.9445 2
      vertex 58.5979 11.495 5
      vertex 58.8382 11.9445 5
    endloop
  endfacet
  facet normal 0 0 -1
    outer loop
      vertex 61 10.5 2
      vertex 58.45 11.0072 2
      vertex 58.5979 11.495 2
    endloop
  endfacet
  facet normal 0 0 1
    outer loop
      vertex 61 10.5 5
      vertex 58.5979 11.495 5
      vertex 58.45 11.0072 5
    endloop
  endfacet
  facet normal -0.95694 0.290285 0
    outer loop
      vertex 58.5979 11.495 2
      vertex 58.45 11.0072 2
      vertex 58.45 11.0072 5
    endloop
  endfacet
  facet normal -0.95694 0.290285 0
    outer loop
      vertex 58.5979 11.495 2
      vertex 58.45 11.0072 5
      vertex 58.5979 11.495 5
    endloop
  endfacet
  facet normal 0 0 -1
    outer loop
      vertex 61 10.5 2
      vertex 58.4 10.5 2
      vertex 58.45 11.0072 2
    endloop
  endfacet
  facet normal 0 0 1
    outer loop
      vertex 61 10.5 5
      vertex 58.45 11.0072 5
      vertex 58.4 10.5 5
    endloop
  endfacet
  facet normal -0.995185 0.0980171 0
    outer loop
      vertex 58.45 11.0072 2
      vertex 58.4 10.5 2
      vertex 58.4 10.5 5
    endloop
  endfacet
  facet normal -0.995185 0.0980171 0
    outer loop
      vertex 58.45 11.0072 2
      vertex 58.4 10.5 5
      vertex 58.45 11.0072 5
    endloop
  endfacet
  facet normal -0 0 -1
    outer loop
      vertex 61 10.5 2
      vertex 58.45 9.99277 2
      vertex 58.4 10.5 2
    endloop
  endfacet
  facet normal 0 0 1
    outer loop
      vertex 61 10.5 5
      vertex 58.4 10.5 5
      vertex 58.45 9.99277 5
    endloop
  endfacet
  facet normal -0.995185 -0.0980171 0
    outer loop
      vertex 58.4 10.5 2
      vertex 58.45 9.99277 2
      vertex 58.45 9.99277 5
    endloop
  endfacet
  facet normal -0.995185 -0.0980171 0
    outer loop
      vertex 58.4 10.5 2
      vertex 58.45 9.99277 5
      vertex 58.4 10.5 5
    endloop
  endfacet
  facet normal 0 0 -1
    outer loop
      vertex 61 10.5 2
      vertex 58.5979 9.50502 2
      vertex 58.45 9.99277 2
    endloop
  endfacet
  facet normal 0 0 1
    outer loop
      vertex 61 10.5 5
      vertex 58.45 9.99277 5
      vertex 58.5979 9.50502 5
    endloop
  endfacet
  facet normal -0.95694 -0.290285 0
    outer loop
      vertex 58.45 9.99277 2
      vertex 58.5979 9.50502 2
      vertex 58.5979 9.50502 5
    endloop
  endfacet
  facet normal -0.95694 -0.290285 0
    outer loop
      vertex 58.45 9.99277 2
      vertex 58.5979 9.50502 5
      vertex 58.45 9.99277 5
    endloop
  endfacet
  facet normal 0 0 -1
    outer loop
      vertex 61 10.5 2
      vertex 58.8382 9.05552 2
      vertex 58.5979 9.50502 2
    endloop
  endfacet
  facet normal 0 0 1
    outer loop
      vertex 61 10.5 5
      vertex 58.5979 9.50502 5
      vertex 58.8382 9.05552 5
    endloop
  endfacet
  facet normal -0.881921 -0.471397 0
    outer loop
      vertex 58.5979 9.50502 2
      vertex 58.8382 9.05552 2
      vertex 58.8382 9.05552 5
    endloop
  endfacet
  facet normal -0.881921 -0.471397 0
    outer loop
      vertex 58.5979 9.50502 2
      vertex 58.8382 9.05552 5
      vertex 58.5979 9.50502 5
    endloop
  endfacet
  facet normal 0 0 -1
    outer loop
      vertex 61 10.5 2
      vertex 59.1615 8.66152 2
      vertex 58.8382 9.05552 2
    endloop
  endfacet
  facet normal 0 0 1
    outer loop
      vertex 61 10.5 5
      vertex 58.8382 9.05552 5
      vertex 59.1615 8.66152 5
    endloop
  endfacet
  facet normal -0.77301 -0.634393 0
    outer loop
      vertex 58.8382 9.05552 2
      vertex 59.1615 8.66152 2
      vertex 59.1615 8.66152 5
    endloop
  endfacet
  facet normal -0.77301 -0.634393 0
    outer loop
      vertex 58.8382 9.05552 2
      vertex 59.1615 8.66152 5
      vertex 58.8382 9.05552 5
    endloop
  endfacet
  facet normal 0 0 -1
    outer loop
      vertex 61 10.5 2
      vertex 59.5555 8.33818 2
      vertex 59.1615 8.66152 2
    endloop
  endfacet
  facet normal 0 0 1
    outer loop
      vertex 61 10.5 5
      vertex 59.1615 8.66152 5
      vertex 59.5555 8.33818 5
    endloop
  endfacet
  facet normal -0.634393 -0.77301 0
    outer loop
      vertex 59.1615 8.66152 2
      vertex 59.5555 8.33818 2
      vertex 59.5555 8.33818 5
    endloop
  endfacet
  facet normal -0.634393 -0.77301 0
    outer loop
      vertex 59.1615 8.66152 2
      vertex 59.5555 8.33818 5
      vertex 59.1615 8.66152 5
    endloop
  endfacet
  facet normal 0 0 -1
    outer loop
      vertex 61 10.5 2
      vertex 60.005 8.09791 2
      vertex 59.5555 8.33818 2
    endloop
  endfacet
  facet normal 0 0 1
    outer loop
      vertex 61 10.5 5
      vertex 59.5555 8.33818 5
      vertex 60.005 8.09791 5
    endloop
  endfacet
  facet normal -0.471397 -0.881921 0
    outer loop
      vertex 59.5555 8.33818 2
      vertex 60.005 8.09791 2
      vertex 60.005 8.09791 5
    endloop
  endfacet
  facet normal -0.471397 -0.881921 0
    outer loop
      vertex 59.5555 8.33818 2
      vertex 60.005 8.09791 5
      vertex 59.5555 8.33818 5
    endloop
  endfacet
  facet normal 0 0 -1
    outer loop
      vertex 61 10.5 2
      vertex 60.4928 7.94996 2
      vertex 60.005 8.09791 2
    endloop
  endfacet
  facet normal 0 0 1
    outer loop
      vertex 61 10.5 5
      vertex 60.005 8.09791 5
      vertex 60.4928 7.94996 5
    endloop
  endfacet
  facet normal -0.290285 -0.95694 0
    outer loop
      vertex 60.005 8.09791 2
      vertex 60.4928 7.94996 2
      vertex 60.4928 7.94996 5
    endloop
  endfacet
  facet normal -0.290285 -0.95694 0
    outer loop
      vertex 60.005 8.09791 2
      vertex 60.4928 7.94996 5
      vertex 60.005 8.09791 5
    endloop
  endfacet
  facet normal 0 -0 -1
    outer loop
      vertex 61 10.5 2
      vertex 61 7.9 2
      vertex 60.4928 7.94996 2
    endloop
  endfacet
  facet normal 0 0 1
    outer loop
      vertex 61 10.5 5
      vertex 60.4928 7.94996 5
      vertex 61 7.9 5
    endloop
  endfacet
  facet normal -0.0980171 -0.995185 0
    outer loop
      vertex 60.4928 7.94996 2
      vertex 61 7.9 2
      vertex 61 7.9 5
    endloop
  endfacet
  facet normal -0.0980171 -0.995185 0
    outer loop
      vertex 60.4928 7.94996 2
      vertex 61 7.9 5
      vertex 60.4928 7.94996 5
    endloop
  endfacet
  facet normal 0 0 -1
    outer loop
      vertex 61 10.5 2
      vertex 61.5072 7.94996 2
      vertex 61 7.9 2
    endloop
  endfacet
  facet normal 0 0 1
    outer loop
      vertex 61 10.5 5
      vertex 61 7.9 5
      vertex 61.5072 7.94996 5
    endloop
  endfacet
  facet normal 0.0980171 -0.995185 0
    outer loop
      vertex 61 7.9 2
      vertex 61.5072 7.94996 2
      vertex 61.5072 7.94996 5
    endloop
  endfacet
  facet normal 0.0980171 -0.995185 0
    outer loop
      vertex 61 7.9 2
      vertex 61.5072 7.94996 5
      vertex 61 7.9 5
    endloop
  endfacet
  facet normal 0 0 -1
    outer loop
      vertex 61 10.5 2
      vertex 61.995 8.09791 2
      vertex 61.5072 7.94996 2
    endloop
  endfacet
  facet normal 0 0 1
    outer loop
      vertex 61 10.5 5
      vertex 61.5072 7.94996 5
      vertex 61.995 8.09791 5
    endloop
  endfacet
  facet normal 0.290285 -0.95694 0
    outer loop
      vertex 61.5072 7.94996 2
      vertex 61.995 8.09791 2
      vertex 61.995 8.09791 5
    endloop
  endfacet
  facet normal 0.290285 -0.95694 0
    outer loop
      vertex 61.5072 7.94996 2
      vertex 61.995 8.09791 5
      vertex 61.5072 7.94996 5
    endloop
  endfacet
  facet normal 0 0 -1
    outer loop
      vertex 61 10.5 2
      vertex 62.4445 8.33818 2
      vertex 61.995 8.09791 2
    endloop
  endfacet
  facet normal 0 0 1
    outer loop
      vertex 61 10.5 5
      vertex 61.995 8.09791 5
      vertex 62.4445 8.33818 5
    endloop
  endfacet
  facet normal 0.471397 -0.881921 0
    outer loop
      vertex 61.995 8.09791 2
      vertex 62.4445 8.33818 2
      vertex 62.4445 8.33818 5
    endloop
  endfacet
  facet normal 0.471397 -0.881921 0
    outer loop
      vertex 61.995 8.09791 2
      vertex 62.4445 8.33818 5
      vertex 61.995 8.09791 5
    endloop
  endfacet
  facet normal 0 0 -1
    outer loop
      vertex 61 10.5 2
      vertex 62.8385 8.66152 2
      vertex 62.4445 8.33818 2
    endloop
  endfacet
  facet normal 0 0 1
    outer loop
      vertex 61 10.5 5
      vertex 62.4445 8.33818 5
      vertex 62.8385 8.66152 5
    endloop
  endfacet
  facet normal 0.634393 -0.77301 0
    outer loop
      vertex 62.4445 8.33818 2
      vertex 62.8385 8.66152 2
      vertex 62.8385 8.66152 5
    endloop
  endfacet
  facet normal 0.634393 -0.77301 0
    outer loop
      vertex 62.4445 8.33818 2
      vertex 62.8385 8.66152 5
      vertex 62.4445 8.33818 5
    endloop
  endfacet
  facet normal 0 0 -1
    outer loop
      vertex 61 10.5 2
      vertex 63.1618 9.05552 2
      vertex 62.8385 8.66152 2
    endloop
  endfacet
  facet normal 0 0 1
    outer loop
      vertex 61 10.5 5
      vertex 62.8385 8.66152 5
      vertex 63.1618 9.05552 5
    endloop
  endfacet
  facet normal 0.77301 -0.634393 0
    outer loop
      vertex 62.8385 8.66152 2
      vertex 63.1618 9.05552 2
      vertex 63.1618 9.05552 5
    endloop
  endfacet
  facet normal 0.77301 -0.634393 0
    outer loop
      vertex 62.8385 8.66152 2
      vertex 63.1618 9.05552 5
      vertex 62.8385 8.66152 5
    endloop
  endfacet
  facet normal 0 0 -1
    outer loop
      vertex 61 10.5 2
      vertex 63.4021 9.50502 2
      vertex 63.1618 9.05552 2
    endloop
  endfacet
  facet normal 0 0 1
    outer loop
      vertex 61 10.5 5
      vertex 63.1618 9.05552 5
      vertex 63.4021 9.50502 5
    endloop
  endfacet
  facet normal 0.881921 -0.471397 0
    outer loop
      vertex 63.1618 9.05552 2
      vertex 63.4021 9.50502 2
      vertex 63.4021 9.50502 5
    endloop
  endfacet
  facet normal 0.881921 -0.471397 0
    outer loop
      vertex 63.1618 9.05552 2
      vertex 63.4021 9.50502 5
      vertex 63.1618 9.05552 5
    endloop
  endfacet
  facet normal 0 0 -1
    outer loop
      vertex 61 10.5 2
      vertex 63.55 9.99277 2
      vertex 63.4021 9.50502 2
    endloop
  endfacet
  facet normal 0 0 1
    outer loop
      vertex 61 10.5 5
      vertex 63.4021 9.50502 5
      vertex 63.55 9.99277 5
    endloop
  endfacet
  facet normal 0.95694 -0.290285 0
    outer loop
      vertex 63.4021 9.50502 2
      vertex 63.55 9.99277 2
      vertex 63.55 9.99277 5
    endloop
  endfacet
  facet normal 0.95694 -0.290285 0
    outer loop
      vertex 63.4021 9.50502 2
      vertex 63.55 9.99277 5
      vertex 63.4021 9.50502 5
    endloop
  endfacet
  facet normal 0 0 -1
    outer loop
      vertex 61 10.5 2
      vertex 63.6 10.5 2
      vertex 63.55 9.99277 2
    endloop
  endfacet
  facet normal -0 0 1
    outer loop
      vertex 61 10.5 5
      vertex 63.55 9.99277 5
      vertex 63.6 10.5 5
    endloop
  endfacet
  facet normal 0.995185 -0.0980171 0
    outer loop
      vertex 63.55 9.99277 2
      vertex 63.6 10.5 2
      vertex 63.6 10.5 5
    endloop
  endfacet
  facet normal 0.995185 -0.0980171 0
    outer loop
      vertex 63.55 9.99277 2
      vertex 63.6 10.5 5
      vertex 63.55 9.99277 5
    endloop
  endfacet
  facet normal 0 0 -1
    outer loop
      vertex 61 31.5 2
      vertex 63.55 32.0072 2
      vertex 63.6 31.5 2
    endloop
  endfacet
  facet normal 0 0 1
    outer loop
      vertex 61 31.5 5
      vertex 63.6 31.5 5
      vertex 63.55 32.0072 5
    endloop
  endfacet
  facet normal 0.995185 0.0980171 0
    outer loop
      vertex 63.6 31.5 2
      vertex 63.55 32.0072 2
      vertex 63.55 32.0072 5
    endloop
  endfacet
  facet normal 0.995185 0.0980171 -0
    outer loop
      vertex 63.6 31.5 2
      vertex 63.55 32.0072 5
      vertex 63.6 31.5 5
    endloop
  endfacet
  facet normal 0 0 -1
    outer loop
      vertex 61 31.5 2
      vertex 63.4021 32.495 2
      vertex 63.55 32.0072 2
    endloop
  endfacet
  facet normal 0 0 1
    outer loop
      vertex 61 31.5 5
      vertex 63.55 32.0072 5
      vertex 63.4021 32.495 5
    endloop
  endfacet
  facet normal 0.95694 0.290285 0
    outer loop
      vertex 63.55 32.0072 2
      vertex 63.4021 32.495 2
      vertex 63.4021 32.495 5
    endloop
  endfacet
  facet normal 0.95694 0.290285 -0
    outer loop
      vertex 63.55 32.0072 2
      vertex 63.4021 32.495 5
      vertex 63.55 32.0072 5
    endloop
  endfacet
  facet normal 0 0 -1
    outer loop
      vertex 61 31.5 2
      vertex 63.1618 32.9445 2
      vertex 63.4021 32.495 2
    endloop
  endfacet
  facet normal 0 0 1
    outer loop
      vertex 61 31.5 5
      vertex 63.4021 32.495 5
      vertex 63.1618 32.9445 5
    endloop
  endfacet
  facet normal 0.881921 0.471397 0
    outer loop
      vertex 63.4021 32.495 2
      vertex 63.1618 32.9445 2
      vertex 63.1618 32.9445 5
    endloop
  endfacet
  facet normal 0.881921 0.471397 -0
    outer loop
      vertex 63.4021 32.495 2
      vertex 63.1618 32.9445 5
      vertex 63.4021 32.495 5
    endloop
  endfacet
  facet normal 0 0 -1
    outer loop
      vertex 61 31.5 2
      vertex 62.8385 33.3385 2
      vertex 63.1618 32.9445 2
    endloop
  endfacet
  facet normal 0 0 1
    outer loop
      vertex 61 31.5 5
      vertex 63.1618 32.9445 5
      vertex 62.8385 33.3385 5
    endloop
  endfacet
  facet normal 0.77301 0.634393 0
    outer loop
      vertex 63.1618 32.9445 2
      vertex 62.8385 33.3385 2
      vertex 62.8385 33.3385 5
    endloop
  endfacet
  facet normal 0.77301 0.634393 -0
    outer loop
      vertex 63.1618 32.9445 2
      vertex 62.8385 33.3385 5
      vertex 63.1618 32.9445 5
    endloop
  endfacet
  facet normal 0 0 -1
    outer loop
      vertex 61 31.5 2
      vertex 62.4445 33.6618 2
      vertex 62.8385 33.3385 2
    endloop
  endfacet
  facet normal 0 0 1
    outer loop
      vertex 61 31.5 5
      vertex 62.8385 33.3385 5
      vertex 62.4445 33.6618 5
    endloop
  endfacet
  facet normal 0.634393 0.77301 0
    outer loop
      vertex 62.8385 33.3385 2
      vertex 62.4445 33.6618 2
      vertex 62.4445 33.6618 5
    endloop
  endfacet
  facet normal 0.634393 0.77301 -0
    outer loop
      vertex 62.8385 33.3385 2
      vertex 62.4445 33.6618 5
      vertex 62.8385 33.3385 5
    endloop
  endfacet
  facet normal 0 0 -1
    outer loop
      vertex 61 31.5 2
      vertex 61.995 33.9021 2
      vertex 62.4445 33.6618 2
    endloop
  endfacet
  facet normal 0 0 1
    outer loop
      vertex 61 31.5 5
      vertex 62.4445 33.6618 5
      vertex 61.995 33.9021 5
    endloop
  endfacet
  facet normal 0.471397 0.881921 0
    outer loop
      vertex 62.4445 33.6618 2
      vertex 61.995 33.9021 2
      vertex 61.995 33.9021 5
    endloop
  endfacet
  facet normal 0.471397 0.881921 -0
    outer loop
      vertex 62.4445 33.6618 2
      vertex 61.995 33.9021 5
      vertex 62.4445 33.6618 5
    endloop
  endfacet
  facet normal 0 0 -1
    outer loop
      vertex 61 31.5 2
      vertex 61.5072 34.05 2
      vertex 61.995 33.9021 2
    endloop
  endfacet
  facet normal 0 0 1
    outer loop
      vertex 61 31.5 5
      vertex 61.995 33.9021 5
      vertex 61.5072 34.05 5
    endloop
  endfacet
  facet normal 0.290285 0.95694 0
    outer loop
      vertex 61.995 33.9021 2
      vertex 61.5072 34.05 2
      vertex 61.5072 34.05 5
    endloop
  endfacet
  facet normal 0.290285 0.95694 -0
    outer loop
      vertex 61.995 33.9021 2
      vertex 61.5072 34.05 5
      vertex 61.995 33.9021 5
    endloop
  endfacet
  facet normal 0 0 -1
    outer loop
      vertex 61 31.5 2
      vertex 61 34.1 2
      vertex 61.5072 34.05 2
    endloop
  endfacet
  facet normal 0 0 1
    outer loop
      vertex 61 31.5 5
      vertex 61.5072 34.05 5
      vertex 61 34.1 5
    endloop
  endfacet
  facet normal 0.0980171 0.995185 0
    outer loop
      vertex 61.5072 34.05 2
      vertex 61 34.1 2
      vertex 61 34.1 5
    endloop
  endfacet
  facet normal 0.0980171 0.995185 -0
    outer loop
      vertex 61.5072 34.05 2
      vertex 61 34.1 5
      vertex 61.5072 34.05 5
    endloop
  endfacet
  facet normal 0 0 -1
    outer loop
      vertex 61 31.5 2
      vertex 60.4928 34.05 2
      vertex 61 34.1 2
    endloop
  endfacet
  facet normal 0 -0 1
    outer loop
      vertex 61 31.5 5
      vertex 61 34.1 5
      vertex 60.4928 34.05 5
    endloop
  endfacet
  facet normal -0.0980171 0.995185 0
    outer loop
      vertex 61 34.1 2
      vertex 60.4928 34.05 2
      vertex 60.4928 34.05 5
    endloop
  endfacet
  facet normal -0.0980171 0.995185 0
    outer loop
      vertex 61 34.1 2
      vertex 60.4928 34.05 5
      vertex 61 34.1 5
    endloop
  endfacet
  facet normal 0 0 -1
    outer loop
      vertex 61 31.5 2
      vertex 60.005 33.9021 2
      vertex 60.4928 34.05 2
    endloop
  endfacet
  facet normal 0 0 1
    outer loop
      vertex 61 31.5 5
      vertex 60.4928 34.05 5
      vertex 60.005 33.9021 5
    endloop
  endfacet
  facet normal -0.290285 0.95694 0
    outer loop
      vertex 60.4928 34.05 2
      vertex 60.005 33.9021 2
      vertex 60.005 33.9021 5
    endloop
  endfacet
  facet normal -0.290285 0.95694 0
    outer loop
      vertex 60.4928 34.05 2
      vertex 60.005 33.9021 5
      vertex 60.4928 34.05 5
    endloop
  endfacet
  facet normal 0 0 -1
    outer loop
      vertex 61 31.5 2
      vertex 59.5555 33.6618 2
      vertex 60.005 33.9021 2
    endloop
  endfacet
  facet normal 0 0 1
    outer loop
      vertex 61 31.5 5
      vertex 60.005 33.9021 5
      vertex 59.5555 33.6618 5
    endloop
  endfacet
  facet normal -0.471397 0.881921 0
    outer loop
      vertex 60.005 33.9021 2
      vertex 59.5555 33.6618 2
      vertex 59.5555 33.6618 5
    endloop
  endfacet
  facet normal -0.471397 0.881921 0
    outer loop
      vertex 60.005 33.9021 2
      vertex 59.5555 33.6618 5
      vertex 60.005 33.9021 5
    endloop
  endfacet
  facet normal 0 0 -1
    outer loop
      vertex 61 31.5 2
      vertex 59.1615 33.3385 2
      vertex 59.5555 33.6618 2
    endloop
  endfacet
  facet normal 0 0 1
    outer loop
      vertex 61 31.5 5
      vertex 59.5555 33.6618 5
      vertex 59.1615 33.3385 5
    endloop
  endfacet
  facet normal -0.634393 0.77301 0
    outer loop
      vertex 59.5555 33.6618 2
      vertex 59.1615 33.3385 2
      vertex 59.1615 33.3385 5
    endloop
  endfacet
  facet normal -0.634393 0.77301 0
    outer loop
      vertex 59.5555 33.6618 2
      vertex 59.1615 33.3385 5
      vertex 59.5555 33.6618 5
    endloop
  endfacet
  facet normal 0 0 -1
    outer loop
      vertex 61 31.5 2
      vertex 58.8382 32.9445 2
      vertex 59.1615 33.3385 2
    endloop
  endfacet
  facet normal 0 0 1
    outer loop
      vertex 61 31.5 5
      vertex 59.1615 33.3385 5
      vertex 58.8382 32.9445 5
    endloop
  endfacet
  facet normal -0.77301 0.634393 0
    outer loop
      vertex 59.1615 33.3385 2
      vertex 58.8382 32.9445 2
      vertex 58.8382 32.9445 5
    endloop
  endfacet
  facet normal -0.77301 0.634393 0
    outer loop
      vertex 59.1615 33.3385 2
      vertex 58.8382 32.9445 5
      vertex 59.1615 33.3385 5
    endloop
  endfacet
  facet normal 0 0 -1
    outer loop
      vertex 61 31.5 2
      vertex 58.5979 32.495 2
      vertex 58.8382 32.9445 2
    endloop
  endfacet
  facet normal 0 0 1
    outer loop
      vertex 61 31.5 5
      vertex 58.8382 32.9445 5
      vertex 58.5979 32.495 5
    endloop
  endfacet
  facet normal -0.881921 0.471397 0
    outer loop
      vertex 58.8382 32.9445 2
      vertex 58.5979 32.495 2
      vertex 58.5979 32.495 5
    endloop
  endfacet
  facet normal -0.881921 0.471397 0
    outer loop
      vertex 58.8382 32.9445 2
      vertex 58.5979 32.495 5
      vertex 58.8382 32.9445 5
    endloop
  endfacet
  facet normal 0 0 -1
    outer loop
      vertex 61 31.5 2
      vertex 58.45 32.0072 2
      vertex 58.5979 32.495 2
    endloop
  endfacet
  facet normal 0 0 1
    outer loop
      vertex 61 31.5 5
      vertex 58.5979 32.495 5
      vertex 58.45 32.0072 5
    endloop
  endfacet
  facet normal -0.95694 0.290285 0
    outer loop
      vertex 58.5979 32.495 2
      vertex 58.45 32.0072 2
      vertex 58.45 32.0072 5
    endloop
  endfacet
  facet normal -0.95694 0.290285 0
    outer loop
      vertex 58.5979 32.495 2
      vertex 58.45 32.0072 5
      vertex 58.5979 32.495 5
    endloop
  endfacet
  facet normal 0 0 -1
    outer loop
      vertex 61 31.5 2
      vertex 58.4 31.5 2
      vertex 58.45 32.0072 2
    endloop
  endfacet
  facet normal 0 0 1
    outer loop
      vertex 61 31.5 5
      vertex 58.45 32.0072 5
      vertex 58.4 31.5 5
    endloop
  endfacet
  facet normal -0.995185 0.0980171 0
    outer loop
      vertex 58.45 32.0072 2
      vertex 58.4 31.5 2
      vertex 58.4 31.5 5
    endloop
  endfacet
  facet normal -0.995185 0.0980171 0
    outer loop
      vertex 58.45 32.0072 2
      vertex 58.4 31.5 5
      vertex 58.45 32.0072 5
    endloop
  endfacet
  facet normal -0 0 -1
    outer loop
      vertex 61 31.5 2
      vertex 58.45 30.9928 2
      vertex 58.4 31.5 2
    endloop
  endfacet
  facet normal 0 0 1
    outer loop
      vertex 61 31.5 5
      vertex 58.4 31.5 5
      vertex 58.45 30.9928 5
    endloop
  endfacet
  facet normal -0.995185 -0.0980171 0
    outer loop
      vertex 58.4 31.5 2
      vertex 58.45 30.9928 2
      vertex 58.45 30.9928 5
    endloop
  endfacet
  facet normal -0.995185 -0.0980171 0
    outer loop
      vertex 58.4 31.5 2
      vertex 58.45 30.9928 5
      vertex 58.4 31.5 5
    endloop
  endfacet
  facet normal 0 0 -1
    outer loop
      vertex 61 31.5 2
      vertex 58.5979 30.505 2
      vertex 58.45 30.9928 2
    endloop
  endfacet
  facet normal 0 0 1
    outer loop
      vertex 61 31.5 5
      vertex 58.45 30.9928 5
      vertex 58.5979 30.505 5
    endloop
  endfacet
  facet normal -0.95694 -0.290285 0
    outer loop
      vertex 58.45 30.9928 2
      vertex 58.5979 30.505 2
      vertex 58.5979 30.505 5
    endloop
  endfacet
  facet normal -0.95694 -0.290285 0
    outer loop
      vertex 58.45 30.9928 2
      vertex 58.5979 30.505 5
      vertex 58.45 30.9928 5
    endloop
  endfacet
  facet normal 0 0 -1
    outer loop
      vertex 61 31.5 2
      vertex 58.8382 30.0555 2
      vertex 58.5979 30.505 2
    endloop
  endfacet
  facet normal 0 0 1
    outer loop
      vertex 61 31.5 5
      vertex 58.5979 30.505 5
      vertex 58.8382 30.0555 5
    endloop
  endfacet
  facet normal -0.881921 -0.471397 0
    outer loop
      vertex 58.5979 30.505 2
      vertex 58.8382 30.0555 2
      vertex 58.8382 30.0555 5
    endloop
  endfacet
  facet normal -0.881921 -0.471397 0
    outer loop
      vertex 58.5979 30.505 2
      vertex 58.8382 30.0555 5
      vertex 58.5979 30.505 5
    endloop
  endfacet
  facet normal 0 0 -1
    outer loop
      vertex 61 31.5 2
      vertex 59.1615 29.6615 2
      vertex 58.8382 30.0555 2
    endloop
  endfacet
  facet normal 0 0 1
    outer loop
      vertex 61 31.5 5
      vertex 58.8382 30.0555 5
      vertex 59.1615 29.6615 5
    endloop
  endfacet
  facet normal -0.77301 -0.634393 0
    outer loop
      vertex 58.8382 30.0555 2
      vertex 59.1615 29.6615 2
      vertex 59.1615 29.6615 5
    endloop
  endfacet
  facet normal -0.77301 -0.634393 0
    outer loop
      vertex 58.8382 30.0555 2
      vertex 59.1615 29.6615 5
      vertex 58.8382 30.0555 5
    endloop
  endfacet
  facet normal 0 0 -1
    outer loop
      vertex 61 31.5 2
      vertex 59.5555 29.3382 2
      vertex 59.1615 29.6615 2
    endloop
  endfacet
  facet normal 0 0 1
    outer loop
      vertex 61 31.5 5
      vertex 59.1615 29.6615 5
      vertex 59.5555 29.3382 5
    endloop
  endfacet
  facet normal -0.634393 -0.77301 0
    outer loop
      vertex 59.1615 29.6615 2
      vertex 59.5555 29.3382 2
      vertex 59.5555 29.3382 5
    endloop
  endfacet
  facet normal -0.634393 -0.77301 0
    outer loop
      vertex 59.1615 29.6615 2
      vertex 59.5555 29.3382 5
      vertex 59.1615 29.6615 5
    endloop
  endfacet
  facet normal 0 0 -1
    outer loop
      vertex 61 31.5 2
      vertex 60.005 29.0979 2
      vertex 59.5555 29.3382 2
    endloop
  endfacet
  facet normal 0 0 1
    outer loop
      vertex 61 31.5 5
      vertex 59.5555 29.3382 5
      vertex 60.005 29.0979 5
    endloop
  endfacet
  facet normal -0.471397 -0.881921 0
    outer loop
      vertex 59.5555 29.3382 2
      vertex 60.005 29.0979 2
      vertex 60.005 29.0979 5
    endloop
  endfacet
  facet normal -0.471397 -0.881921 0
    outer loop
      vertex 59.5555 29.3382 2
      vertex 60.005 29.0979 5
      vertex 59.5555 29.3382 5
    endloop
  endfacet
  facet normal 0 0 -1
    outer loop
      vertex 61 31.5 2
      vertex 60.4928 28.95 2
      vertex 60.005 29.0979 2
    endloop
  endfacet
  facet normal 0 0 1
    outer loop
      vertex 61 31.5 5
      vertex 60.005 29.0979 5
      vertex 60.4928 28.95 5
    endloop
  endfacet
  facet normal -0.290285 -0.95694 0
    outer loop
      vertex 60.005 29.0979 2
      vertex 60.4928 28.95 2
      vertex 60.4928 28.95 5
    endloop
  endfacet
  facet normal -0.290285 -0.95694 0
    outer loop
      vertex 60.005 29.0979 2
      vertex 60.4928 28.95 5
      vertex 60.005 29.0979 5
    endloop
  endfacet
  facet normal 0 -0 -1
    outer loop
      vertex 61 31.5 2
      vertex 61 28.9 2
      vertex 60.4928 28.95 2
    endloop
  endfacet
  facet normal 0 0 1
    outer loop
      vertex 61 31.5 5
      vertex 60.4928 28.95 5
      vertex 61 28.9 5
    endloop
  endfacet
  facet normal -0.0980171 -0.995185 0
    outer loop
      vertex 60.4928 28.95 2
      vertex 61 28.9 2
      vertex 61 28.9 5
    endloop
  endfacet
  facet normal -0.0980171 -0.995185 0
    outer loop
      vertex 60.4928 28.95 2
      vertex 61 28.9 5
      vertex 60.4928 28.95 5
    endloop
  endfacet
  facet normal 0 0 -1
    outer loop
      vertex 61 31.5 2
      vertex 61.5072 28.95 2
      vertex 61 28.9 2
    endloop
  endfacet
  facet normal 0 0 1
    outer loop
      vertex 61 31.5 5
      vertex 61 28.9 5
      vertex 61.5072 28.95 5
    endloop
  endfacet
  facet normal 0.0980171 -0.995185 0
    outer loop
      vertex 61 28.9 2
      vertex 61.5072 28.95 2
      vertex 61.5072 28.95 5
    endloop
  endfacet
  facet normal 0.0980171 -0.995185 0
    outer loop
      vertex 61 28.9 2
      vertex 61.5072 28.95 5
      vertex 61 28.9 5
    endloop
  endfacet
  facet normal 0 0 -1
    outer loop
      vertex 61 31.5 2
      vertex 61.995 29.0979 2
      vertex 61.5072 28.95 2
    endloop
  endfacet
  facet normal 0 0 1
    outer loop
      vertex 61 31.5 5
      vertex 61.5072 28.95 5
      vertex 61.995 29.0979 5
    endloop
  endfacet
  facet normal 0.290285 -0.95694 0
    outer loop
      vertex 61.5072 28.95 2
      vertex 61.995 29.0979 2
      vertex 61.995 29.0979 5
    endloop
  endfacet
  facet normal 0.290285 -0.95694 0
    outer loop
      vertex 61.5072 28.95 2
      vertex 61.995 29.0979 5
      vertex 61.5072 28.95 5
    endloop
  endfacet
  facet normal 0 0 -1
    outer loop
      vertex 61 31.5 2
      vertex 62.4445 29.3382 2
      vertex 61.995 29.0979 2
    endloop
  endfacet
  facet normal 0 0 1
    outer loop
      vertex 61 31.5 5
      vertex 61.995 29.0979 5
      vertex 62.4445 29.3382 5
    endloop
  endfacet
  facet normal 0.471397 -0.881921 0
    outer loop
      vertex 61.995 29.0979 2
      vertex 62.4445 29.3382 2
      vertex 62.4445 29.3382 5
    endloop
  endfacet
  facet normal 0.471397 -0.881921 0
    outer loop
      vertex 61.995 29.0979 2
      vertex 62.4445 29.3382 5
      vertex 61.995 29.0979 5
    endloop
  endfacet
  facet normal 0 0 -1
    outer loop
      vertex 61 31.5 2
      vertex 62.8385 29.6615 2
      vertex 62.4445 29.3382 2
    endloop
  endfacet
  facet normal 0 0 1
    outer loop
      vertex 61 31.5 5
      vertex 62.4445 29.3382 5
      vertex 62.8385 29.6615 5
    endloop
  endfacet
  facet normal 0.634393 -0.77301 0
    outer loop
      vertex 62.4445 29.3382 2
      vertex 62.8385 29.6615 2
      vertex 62.8385 29.6615 5
    endloop
  endfacet
  facet normal 0.634393 -0.77301 0
    outer loop
      vertex 62.4445 29.3382 2
      vertex 62.8385 29.6615 5
      vertex 62.4445 29.3382 5
    endloop
  endfacet
  facet normal 0 0 -1
    outer loop
      vertex 61 31.5 2
      vertex 63.1618 30.0555 2
      vertex 62.8385 29.6615 2
    endloop
  endfacet
  facet normal 0 0 1
    outer loop
      vertex 61 31.5 5
      vertex 62.8385 29.6615 5
      vertex 63.1618 30.0555 5
    endloop
  endfacet
  facet normal 0.77301 -0.634393 0
    outer loop
      vertex 62.8385 29.6615 2
      vertex 63.1618 30.0555 2
      vertex 63.1618 30.0555 5
    endloop
  endfacet
  facet normal 0.77301 -0.634393 0
    outer loop
      vertex 62.8385 29.6615 2
      vertex 63.1618 30.0555 5
      vertex 62.8385 29.6615 5
    endloop
  endfacet
  facet normal 0 0 -1
    outer loop
      vertex 61 31.5 2
      vertex 63.4021 30.505 2
      vertex 63.1618 30.0555 2
    endloop
  endfacet
  facet normal 0 0 1
    outer loop
      vertex 61 31.5 5
      vertex 63.1618 30.0555 5
      vertex 63.4021 30.505 5
    endloop
  endfacet
  facet normal 0.881921 -0.471397 0
    outer loop
      vertex 63.1618 30.0555 2
      vertex 63.4021 30.505 2
      vertex 63.4021 30.505 5
    endloop
  endfacet
  facet normal 0.881921 -0.471397 0
    outer loop
      vertex 63.1618 30.0555 2
      vertex 63.4021 30.505 5
      vertex 63.1618 30.0555 5
    endloop
  endfacet
  facet normal 0 0 -1
    outer loop
      vertex 61 31.5 2
      vertex 63.55 30.9928 2
      vertex 63.4021 30.505 2
    endloop
  endfacet
  facet normal 0 0 1
    outer loop
      vertex 61 31.5 5
      vertex 63.4021 30.505 5
      vertex 63.55 30.9928 5
    endloop
  endfacet
  facet normal 0.95694 -0.290285 0
    outer loop
      vertex 63.4021 30.505 2
      vertex 63.55 30.9928 2
      vertex 63.55 30.9928 5
    endloop
  endfacet
  facet normal 0.95694 -0.290285 0
    outer loop
      vertex 63.4021 30.505 2
      vertex 63.55 30.9928 5
      vertex 63.4021 30.505 5
    endloop
  endfacet
  facet normal 0 0 -1
    outer loop
      vertex 61 31.5 2
      vertex 63.6 31.5 2
      vertex 63.55 30.9928 2
    endloop
  endfacet
  facet normal -0 0 1
    outer loop
      vertex 61 31.5 5
      vertex 63.55 30.9928 5
      vertex 63.6 31.5 5
    endloop
  endfacet
  facet normal 0.995185 -0.0980171 0
    outer loop
      vertex 63.55 30.9928 2
      vertex 63.6 31.5 2
      vertex 63.6 31.5 5
    endloop
  endfacet
  facet normal 0.995185 -0.0980171 0
    outer loop
      vertex 63.55 30.9928 2
      vertex 63.6 31.5 5
      vertex 63.55 30.9928 5
    endloop
  endfacet
  facet normal 0 0 -1
    outer loop
      vertex 4 12 2
      vertex 9 30 2
      vertex 9 12 2
    endloop
  endfacet
  facet normal 0 0 -1
    outer loop
      vertex 4 12 2
      vertex 4 30 2
      vertex 9 30 2
    endloop
  endfacet
  facet normal 0 0 1
    outer loop
      vertex 4 12 5
      vertex 9 12 5
      vertex 9 30 5
    endloop
  endfacet
  facet normal 0 0 1
    outer loop
      vertex 4 12 5
      vertex 9 30 5
      vertex 4 30 5
    endloop
  endfacet
  facet normal 0 -1 0
    outer loop
      vertex 4 12 2
      vertex 9 12 2
      vertex 9 12 5
    endloop
  endfacet
  facet normal 0 -1 0
    outer loop
      vertex 4 12 2
      vertex 9 12 5
      vertex 4 12 5
    endloop
  endfacet
  facet normal 1 0 0
    outer loop
      vertex 9 12 2
      vertex 9 30 2
      vertex 9 30 5
    endloop
  endfacet
  facet normal 1 0 0
    outer loop
      vertex 9 12 2
      vertex 9 30 5
      vertex 9 12 5
    endloop
  endfacet
  facet normal 0 1 0
    outer loop
      vertex 9 30 2
      vertex 4 30 2
      vertex 4 30 5
    endloop
  endfacet
  facet normal 0 1 0
    outer loop
      vertex 9 30 2
      vertex 4 30 5
      vertex 9 30 5
    endloop
  endfacet
  facet normal -1 0 0
    outer loop
      vertex 4 30 2
      vertex 4 12 2
      vertex 4 12 5
    endloop
  endfacet
  facet normal -1 0 0
    outer loop
      vertex 4 30 2
      vertex 4 12 5
      vertex 4 30 5
    endloop
  endfacet
endsolid esp32_dongle_case_bottom
